<?xml version="1.0" encoding="UTF-8" standalone="no"?><!DOCTYPE svg PUBLIC "-//W3C//DTD SVG 1.1//EN" "http://www.w3.org/Graphics/SVG/1.1/DTD/svg11.dtd"><svg width="100%" height="100%" viewBox="0 0 300 298" version="1.1" xmlns="http://www.w3.org/2000/svg" xmlns:xlink="http://www.w3.org/1999/xlink" xml:space="preserve" style="fill-rule:evenodd;clip-rule:evenodd;stroke-linejoin:round;stroke-miterlimit:1.41421;"><path d="M148.96,0.08c82.213,0 148.96,66.747 148.96,148.96c0,82.213 -66.747,148.96 -148.96,148.96c-82.213,0 -148.96,-66.747 -148.96,-148.96c0,-82.213 66.747,-148.96 148.96,-148.96Zm-42.365,225.515l0,-102.272l-31.787,0l0,102.272l31.787,0Zm119.052,-0.003l0,-56.096c0,-27.535 -5.942,-48.716 -38.129,-48.716c-15.463,0 -25.831,8.477 -30.075,16.517l-0.425,0l0,-13.974l-30.489,0l0,102.27l31.759,0l0,-50.593c0,-13.339 2.54,-26.258 19.077,-26.258c16.3,0 16.518,15.255 16.518,27.113l0,49.737l31.764,0Zm-134.94,-153.107c-10.187,0 -18.432,8.26 -18.434,18.424c0,10.174 8.246,18.433 18.436,18.433c10.162,0 18.419,-8.259 18.419,-18.433c0,-10.165 -8.258,-18.424 -18.421,-18.424Z" style="fill:#3e06c2;"/></svg>