<?xml version="1.0" encoding="UTF-8" standalone="no"?>
<!DOCTYPE svg PUBLIC "-//W3C//DTD SVG 1.1//EN" "http://www.w3.org/Graphics/SVG/1.1/DTD/svg11.dtd">
<svg width="100%" height="100%" viewBox="0 0 300 300" version="1.1" xmlns="http://www.w3.org/2000/svg" xmlns:xlink="http://www.w3.org/1999/xlink" xml:space="preserve" style="fill-rule:evenodd;clip-rule:evenodd;stroke-linejoin:round;stroke-miterlimit:1.41421;">
    <g transform="matrix(1,0,0,1,0,-356.492)">
        <g transform="matrix(1,0,0,1,0,356.492)">
            <path d="M261.536,49.769C285.45,76.335 300,111.481 300,150C300,232.787 232.787,300 150,300C67.213,300 0,232.787 0,150C0,67.213 67.213,0 150,0C162.71,0 175.053,1.584 186.862,4.586C194.611,10.067 185.596,51.695 177.788,64.708C169.954,76.893 163.862,88.209 163.862,88.209C157.769,100.394 142.101,110.839 129.045,113.45L125.564,114.321C112.508,116.932 96.84,113.45 90.748,113.45C87.266,113.45 83.784,114.321 79.432,116.932C72.469,122.155 70.728,131.729 75.951,139.563C82.043,146.526 92.488,148.267 99.452,144.785C101.192,143.915 102.063,142.174 102.933,141.303C104.666,138.704 113.301,137.83 120.341,136.951L125.564,136.951L148.194,124.766L122.953,143.044C122.082,143.915 120.341,145.655 118.601,146.526C109.026,152.619 92.488,163.064 88.136,163.934C85.525,163.934 82.914,165.675 80.303,167.416C72.469,173.508 70.728,183.953 76.821,191.787C82.914,199.621 95.1,201.361 102.933,194.398C104.674,192.657 106.415,190.917 107.285,188.305C109.026,184.824 112.508,178.731 116.86,175.249C118.601,173.508 123.823,169.156 126.434,167.416C131.657,163.934 133.397,163.934 135.138,168.286L145.583,146.526L135.138,183.083C134.268,183.083 134.268,183.953 134.268,184.824C134.268,184.824 132.527,190.046 130.786,196.139C128.175,202.232 126.434,208.325 125.564,208.325C124.693,208.325 124.693,209.195 123.823,209.195C113.378,214.418 109.896,226.603 115.119,237.048C120.341,247.493 133.397,250.975 143.842,245.752C154.287,240.53 157.769,228.344 152.546,217.899C152.546,217.899 151.676,217.029 151.676,216.158C150.806,215.288 153.417,204.843 156.898,191.787L156.898,190.917C160.38,178.731 172.566,165.675 178.659,172.638C184.751,177.86 186.492,184.824 185.622,189.176C185.622,191.787 185.622,194.398 186.492,197.009C189.974,206.584 200.419,212.677 209.993,210.065C220.438,207.454 225.66,197.88 223.049,187.435C222.179,184.824 220.438,181.342 218.697,179.601C216.086,176.12 205.641,166.545 197.807,155.23L196.937,154.36C189.103,143.044 188.233,129.988 194.326,117.802L210.864,89.95C220.414,75.19 251.84,44.714 261.536,49.769Z" style="fill:rgb(62,6,194);"/>
        </g>
    </g>
</svg>
