<?xml version="1.0" encoding="UTF-8" standalone="no"?>
<!DOCTYPE svg PUBLIC "-//W3C//DTD SVG 1.1//EN" "http://www.w3.org/Graphics/SVG/1.1/DTD/svg11.dtd">
<svg width="100%" height="100%" viewBox="0 0 29 29" version="1.1" xmlns="http://www.w3.org/2000/svg" xmlns:xlink="http://www.w3.org/1999/xlink" xml:space="preserve" style="fill-rule:evenodd;clip-rule:evenodd;stroke-linejoin:round;stroke-miterlimit:1.41421;">
    <g transform="matrix(1,0,0,1,0,-1)">
        <path d="M14.5,1C22.503,1 29,7.497 29,15.5C29,23.503 22.503,30 14.5,30C6.497,30 0,23.503 0,15.5C0,7.497 6.497,1 14.5,1ZM14.5,9.947C17.565,9.947 20.053,12.435 20.053,15.5C20.053,18.565 17.565,21.053 14.5,21.053C11.435,21.053 8.947,18.565 8.947,15.5C8.947,12.435 11.435,9.947 14.5,9.947Z" style="fill:rgb(77,7,235);"/>
    </g>
</svg>
