<?xml version="1.0" encoding="UTF-8" standalone="no"?><!DOCTYPE svg PUBLIC "-//W3C//DTD SVG 1.1//EN" "http://www.w3.org/Graphics/SVG/1.1/DTD/svg11.dtd"><svg width="100%" height="100%" viewBox="0 0 184 110" version="1.1" xmlns="http://www.w3.org/2000/svg" xmlns:xlink="http://www.w3.org/1999/xlink" xml:space="preserve" style="fill-rule:evenodd;clip-rule:evenodd;stroke-linejoin:round;stroke-miterlimit:1.41421;"><path d="M184,16.072c0,1.609 -1.306,2.915 -2.915,2.915c-1.609,0 -2.915,-1.306 -2.915,-2.915c0,-1.609 1.306,-2.915 2.915,-2.915c1.609,0 2.915,1.306 2.915,2.915Z" style="fill:#00e3ff;"/><path d="M184,2.927c0,1.609 -1.306,2.915 -2.915,2.915c-1.609,0 -2.915,-1.306 -2.915,-2.915c0,-1.609 1.306,-2.915 2.915,-2.915c1.609,0 2.915,1.306 2.915,2.915Z" style="fill:#00e3ff;"/><path d="M184,28.942c0,1.609 -1.306,2.915 -2.915,2.915c-1.609,0 -2.915,-1.306 -2.915,-2.915c0,-1.609 1.306,-2.915 2.915,-2.915c1.609,0 2.915,1.306 2.915,2.915Z" style="fill:#00e3ff;"/><path d="M184,41.984c0,1.609 -1.306,2.915 -2.915,2.915c-1.609,0 -2.915,-1.306 -2.915,-2.915c0,-1.609 1.306,-2.915 2.915,-2.915c1.609,0 2.915,1.306 2.915,2.915Z" style="fill:#00e3ff;"/><path d="M184,55.047c0,1.609 -1.306,2.915 -2.915,2.915c-1.609,0 -2.915,-1.306 -2.915,-2.915c0,-1.609 1.306,-2.915 2.915,-2.915c1.609,0 2.915,1.306 2.915,2.915Z" style="fill:#00e3ff;"/><path d="M184,80.19c0,1.609 -1.306,2.915 -2.915,2.915c-1.609,0 -2.915,-1.306 -2.915,-2.915c0,-1.609 1.306,-2.915 2.915,-2.915c1.609,0 2.915,1.306 2.915,2.915Z" style="fill:#00e3ff;"/><path d="M184,67.045c0,1.609 -1.306,2.915 -2.915,2.915c-1.609,0 -2.915,-1.306 -2.915,-2.915c0,-1.609 1.306,-2.915 2.915,-2.915c1.609,0 2.915,1.306 2.915,2.915Z" style="fill:#00e3ff;"/><path d="M184,93.06c0,1.609 -1.306,2.915 -2.915,2.915c-1.609,0 -2.915,-1.306 -2.915,-2.915c0,-1.609 1.306,-2.915 2.915,-2.915c1.609,0 2.915,1.306 2.915,2.915Z" style="fill:#00e3ff;"/><path d="M184,106.101c0,1.609 -1.306,2.915 -2.915,2.915c-1.609,0 -2.915,-1.306 -2.915,-2.915c0,-1.609 1.306,-2.915 2.915,-2.915c1.609,0 2.915,1.306 2.915,2.915Z" style="fill:#00e3ff;"/><path d="M171.414,16.068c0,1.609 -1.306,2.915 -2.915,2.915c-1.609,0 -2.915,-1.306 -2.915,-2.915c0,-1.609 1.306,-2.915 2.915,-2.915c1.609,0 2.915,1.306 2.915,2.915Z" style="fill:#00e3ff;"/><path d="M171.414,2.923c0,1.609 -1.306,2.915 -2.915,2.915c-1.609,0 -2.915,-1.306 -2.915,-2.915c0,-1.609 1.306,-2.915 2.915,-2.915c1.609,0 2.915,1.306 2.915,2.915Z" style="fill:#00e3ff;"/><path d="M171.414,28.938c0,1.609 -1.306,2.915 -2.915,2.915c-1.609,0 -2.915,-1.306 -2.915,-2.915c0,-1.609 1.306,-2.915 2.915,-2.915c1.609,0 2.915,1.306 2.915,2.915Z" style="fill:#00e3ff;"/><path d="M171.414,41.98c0,1.609 -1.306,2.915 -2.915,2.915c-1.609,0 -2.915,-1.306 -2.915,-2.915c0,-1.609 1.306,-2.915 2.915,-2.915c1.609,0 2.915,1.306 2.915,2.915Z" style="fill:#00e3ff;"/><path d="M171.414,55.043c0,1.609 -1.306,2.915 -2.915,2.915c-1.609,0 -2.915,-1.306 -2.915,-2.915c0,-1.609 1.306,-2.915 2.915,-2.915c1.609,0 2.915,1.306 2.915,2.915Z" style="fill:#00e3ff;"/><path d="M171.414,80.186c0,1.609 -1.306,2.915 -2.915,2.915c-1.609,0 -2.915,-1.306 -2.915,-2.915c0,-1.609 1.306,-2.915 2.915,-2.915c1.609,0 2.915,1.306 2.915,2.915Z" style="fill:#00e3ff;"/><path d="M171.414,67.041c0,1.609 -1.306,2.915 -2.915,2.915c-1.609,0 -2.915,-1.306 -2.915,-2.915c0,-1.609 1.306,-2.915 2.915,-2.915c1.609,0 2.915,1.306 2.915,2.915Z" style="fill:#00e3ff;"/><path d="M171.414,93.056c0,1.609 -1.306,2.915 -2.915,2.915c-1.609,0 -2.915,-1.306 -2.915,-2.915c0,-1.609 1.306,-2.915 2.915,-2.915c1.609,0 2.915,1.306 2.915,2.915Z" style="fill:#00e3ff;"/><path d="M171.414,106.097c0,1.609 -1.306,2.915 -2.915,2.915c-1.609,0 -2.915,-1.306 -2.915,-2.915c0,-1.609 1.306,-2.915 2.915,-2.915c1.609,0 2.915,1.306 2.915,2.915Z" style="fill:#00e3ff;"/><path d="M158.668,16.068c0,1.609 -1.306,2.915 -2.915,2.915c-1.609,0 -2.915,-1.306 -2.915,-2.915c0,-1.609 1.306,-2.915 2.915,-2.915c1.609,0 2.915,1.306 2.915,2.915Z" style="fill:#00e3ff;"/><path d="M158.668,2.923c0,1.609 -1.306,2.915 -2.915,2.915c-1.609,0 -2.915,-1.306 -2.915,-2.915c0,-1.609 1.306,-2.915 2.915,-2.915c1.609,0 2.915,1.306 2.915,2.915Z" style="fill:#00e3ff;"/><path d="M158.668,28.938c0,1.609 -1.306,2.915 -2.915,2.915c-1.609,0 -2.915,-1.306 -2.915,-2.915c0,-1.609 1.306,-2.915 2.915,-2.915c1.609,0 2.915,1.306 2.915,2.915Z" style="fill:#00e3ff;"/><path d="M158.668,41.98c0,1.609 -1.306,2.915 -2.915,2.915c-1.609,0 -2.915,-1.306 -2.915,-2.915c0,-1.609 1.306,-2.915 2.915,-2.915c1.609,0 2.915,1.306 2.915,2.915Z" style="fill:#00e3ff;"/><path d="M158.668,55.043c0,1.609 -1.306,2.915 -2.915,2.915c-1.609,0 -2.915,-1.306 -2.915,-2.915c0,-1.609 1.306,-2.915 2.915,-2.915c1.609,0 2.915,1.306 2.915,2.915Z" style="fill:#00e3ff;"/><path d="M158.668,80.186c0,1.609 -1.306,2.915 -2.915,2.915c-1.609,0 -2.915,-1.306 -2.915,-2.915c0,-1.609 1.306,-2.915 2.915,-2.915c1.609,0 2.915,1.306 2.915,2.915Z" style="fill:#00e3ff;"/><path d="M158.668,67.041c0,1.609 -1.306,2.915 -2.915,2.915c-1.609,0 -2.915,-1.306 -2.915,-2.915c0,-1.609 1.306,-2.915 2.915,-2.915c1.609,0 2.915,1.306 2.915,2.915Z" style="fill:#00e3ff;"/><path d="M158.668,93.056c0,1.609 -1.306,2.915 -2.915,2.915c-1.609,0 -2.915,-1.306 -2.915,-2.915c0,-1.609 1.306,-2.915 2.915,-2.915c1.609,0 2.915,1.306 2.915,2.915Z" style="fill:#00e3ff;"/><path d="M158.668,106.097c0,1.609 -1.306,2.915 -2.915,2.915c-1.609,0 -2.915,-1.306 -2.915,-2.915c0,-1.609 1.306,-2.915 2.915,-2.915c1.609,0 2.915,1.306 2.915,2.915Z" style="fill:#00e3ff;"/><path d="M146.082,16.064c0,1.609 -1.306,2.915 -2.915,2.915c-1.609,0 -2.915,-1.306 -2.915,-2.915c0,-1.609 1.306,-2.915 2.915,-2.915c1.609,0 2.915,1.306 2.915,2.915Z" style="fill:#00e3ff;"/><path d="M146.082,2.919c0,1.609 -1.306,2.915 -2.915,2.915c-1.609,0 -2.915,-1.306 -2.915,-2.915c0,-1.609 1.306,-2.915 2.915,-2.915c1.609,0 2.915,1.306 2.915,2.915Z" style="fill:#00e3ff;"/><path d="M146.082,28.934c0,1.609 -1.306,2.915 -2.915,2.915c-1.609,0 -2.915,-1.306 -2.915,-2.915c0,-1.609 1.306,-2.915 2.915,-2.915c1.609,0 2.915,1.306 2.915,2.915Z" style="fill:#00e3ff;"/><path d="M146.082,41.976c0,1.609 -1.306,2.915 -2.915,2.915c-1.609,0 -2.915,-1.306 -2.915,-2.915c0,-1.609 1.306,-2.915 2.915,-2.915c1.609,0 2.915,1.306 2.915,2.915Z" style="fill:#00e3ff;"/><path d="M146.082,55.039c0,1.609 -1.306,2.915 -2.915,2.915c-1.609,0 -2.915,-1.306 -2.915,-2.915c0,-1.609 1.306,-2.915 2.915,-2.915c1.609,0 2.915,1.306 2.915,2.915Z" style="fill:#00e3ff;"/><path d="M146.082,80.182c0,1.609 -1.306,2.915 -2.915,2.915c-1.609,0 -2.915,-1.306 -2.915,-2.915c0,-1.609 1.306,-2.915 2.915,-2.915c1.609,0 2.915,1.306 2.915,2.915Z" style="fill:#00e3ff;"/><path d="M146.082,67.037c0,1.609 -1.306,2.915 -2.915,2.915c-1.609,0 -2.915,-1.306 -2.915,-2.915c0,-1.609 1.306,-2.915 2.915,-2.915c1.609,0 2.915,1.306 2.915,2.915Z" style="fill:#00e3ff;"/><path d="M146.082,93.051c0,1.609 -1.306,2.915 -2.915,2.915c-1.609,0 -2.915,-1.306 -2.915,-2.915c0,-1.609 1.306,-2.915 2.915,-2.915c1.609,0 2.915,1.306 2.915,2.915Z" style="fill:#00e3ff;"/><path d="M146.082,106.093c0,1.609 -1.306,2.915 -2.915,2.915c-1.609,0 -2.915,-1.306 -2.915,-2.915c0,-1.609 1.306,-2.915 2.915,-2.915c1.609,0 2.915,1.306 2.915,2.915Z" style="fill:#00e3ff;"/><path d="M132.963,16.064c0,1.609 -1.306,2.915 -2.915,2.915c-1.609,0 -2.915,-1.306 -2.915,-2.915c0,-1.609 1.306,-2.915 2.915,-2.915c1.609,0 2.915,1.306 2.915,2.915Z" style="fill:#00e3ff;"/><path d="M132.963,2.919c0,1.609 -1.306,2.915 -2.915,2.915c-1.609,0 -2.915,-1.306 -2.915,-2.915c0,-1.609 1.306,-2.915 2.915,-2.915c1.609,0 2.915,1.306 2.915,2.915Z" style="fill:#00e3ff;"/><path d="M132.963,28.934c0,1.609 -1.306,2.915 -2.915,2.915c-1.609,0 -2.915,-1.306 -2.915,-2.915c0,-1.609 1.306,-2.915 2.915,-2.915c1.609,0 2.915,1.306 2.915,2.915Z" style="fill:#00e3ff;"/><path d="M132.963,41.976c0,1.609 -1.306,2.915 -2.915,2.915c-1.609,0 -2.915,-1.306 -2.915,-2.915c0,-1.609 1.306,-2.915 2.915,-2.915c1.609,0 2.915,1.306 2.915,2.915Z" style="fill:#00e3ff;"/><path d="M132.963,55.039c0,1.609 -1.306,2.915 -2.915,2.915c-1.609,0 -2.915,-1.306 -2.915,-2.915c0,-1.609 1.306,-2.915 2.915,-2.915c1.609,0 2.915,1.306 2.915,2.915Z" style="fill:#00e3ff;"/><path d="M132.963,80.182c0,1.609 -1.306,2.915 -2.915,2.915c-1.609,0 -2.915,-1.306 -2.915,-2.915c0,-1.609 1.306,-2.915 2.915,-2.915c1.609,0 2.915,1.306 2.915,2.915Z" style="fill:#00e3ff;"/><path d="M132.963,67.037c0,1.609 -1.306,2.915 -2.915,2.915c-1.609,0 -2.915,-1.306 -2.915,-2.915c0,-1.609 1.306,-2.915 2.915,-2.915c1.609,0 2.915,1.306 2.915,2.915Z" style="fill:#00e3ff;"/><path d="M132.963,93.051c0,1.609 -1.306,2.915 -2.915,2.915c-1.609,0 -2.915,-1.306 -2.915,-2.915c0,-1.609 1.306,-2.915 2.915,-2.915c1.609,0 2.915,1.306 2.915,2.915Z" style="fill:#00e3ff;"/><path d="M132.963,106.093c0,1.609 -1.306,2.915 -2.915,2.915c-1.609,0 -2.915,-1.306 -2.915,-2.915c0,-1.609 1.306,-2.915 2.915,-2.915c1.609,0 2.915,1.306 2.915,2.915Z" style="fill:#00e3ff;"/><path d="M120.377,16.06c0,1.609 -1.306,2.915 -2.915,2.915c-1.609,0 -2.915,-1.306 -2.915,-2.915c0,-1.609 1.306,-2.915 2.915,-2.915c1.609,0 2.915,1.306 2.915,2.915Z" style="fill:#00e3ff;"/><path d="M120.377,2.915c0,1.609 -1.306,2.915 -2.915,2.915c-1.609,0 -2.915,-1.306 -2.915,-2.915c0,-1.609 1.306,-2.915 2.915,-2.915c1.609,0 2.915,1.306 2.915,2.915Z" style="fill:#00e3ff;"/><path d="M120.377,28.93c0,1.609 -1.306,2.915 -2.915,2.915c-1.609,0 -2.915,-1.306 -2.915,-2.915c0,-1.609 1.306,-2.915 2.915,-2.915c1.609,0 2.915,1.306 2.915,2.915Z" style="fill:#00e3ff;"/><path d="M120.377,41.972c0,1.609 -1.306,2.915 -2.915,2.915c-1.609,0 -2.915,-1.306 -2.915,-2.915c0,-1.609 1.306,-2.915 2.915,-2.915c1.609,0 2.915,1.306 2.915,2.915Z" style="fill:#00e3ff;"/><path d="M120.377,55.035c0,1.609 -1.306,2.915 -2.915,2.915c-1.609,0 -2.915,-1.306 -2.915,-2.915c0,-1.609 1.306,-2.915 2.915,-2.915c1.609,0 2.915,1.306 2.915,2.915Z" style="fill:#00e3ff;"/><path d="M120.377,80.177c0,1.609 -1.306,2.915 -2.915,2.915c-1.609,0 -2.915,-1.306 -2.915,-2.915c0,-1.609 1.306,-2.915 2.915,-2.915c1.609,0 2.915,1.306 2.915,2.915Z" style="fill:#00e3ff;"/><path d="M120.377,67.032c0,1.609 -1.306,2.915 -2.915,2.915c-1.609,0 -2.915,-1.306 -2.915,-2.915c0,-1.609 1.306,-2.915 2.915,-2.915c1.609,0 2.915,1.306 2.915,2.915Z" style="fill:#00e3ff;"/><path d="M120.377,93.047c0,1.609 -1.306,2.915 -2.915,2.915c-1.609,0 -2.915,-1.306 -2.915,-2.915c0,-1.609 1.306,-2.915 2.915,-2.915c1.609,0 2.915,1.306 2.915,2.915Z" style="fill:#00e3ff;"/><path d="M120.377,106.089c0,1.609 -1.306,2.915 -2.915,2.915c-1.609,0 -2.915,-1.306 -2.915,-2.915c0,-1.609 1.306,-2.915 2.915,-2.915c1.609,0 2.915,1.306 2.915,2.915Z" style="fill:#00e3ff;"/><path d="M107.632,16.06c0,1.609 -1.306,2.915 -2.915,2.915c-1.609,0 -2.915,-1.306 -2.915,-2.915c0,-1.609 1.306,-2.915 2.915,-2.915c1.609,0 2.915,1.306 2.915,2.915Z" style="fill:#00e3ff;"/><path d="M107.632,2.915c0,1.609 -1.306,2.915 -2.915,2.915c-1.609,0 -2.915,-1.306 -2.915,-2.915c0,-1.609 1.306,-2.915 2.915,-2.915c1.609,0 2.915,1.306 2.915,2.915Z" style="fill:#00e3ff;"/><path d="M107.632,28.93c0,1.609 -1.306,2.915 -2.915,2.915c-1.609,0 -2.915,-1.306 -2.915,-2.915c0,-1.609 1.306,-2.915 2.915,-2.915c1.609,0 2.915,1.306 2.915,2.915Z" style="fill:#00e3ff;"/><path d="M107.632,41.972c0,1.609 -1.306,2.915 -2.915,2.915c-1.609,0 -2.915,-1.306 -2.915,-2.915c0,-1.609 1.306,-2.915 2.915,-2.915c1.609,0 2.915,1.306 2.915,2.915Z" style="fill:#00e3ff;"/><path d="M107.632,55.035c0,1.609 -1.306,2.915 -2.915,2.915c-1.609,0 -2.915,-1.306 -2.915,-2.915c0,-1.609 1.306,-2.915 2.915,-2.915c1.609,0 2.915,1.306 2.915,2.915Z" style="fill:#00e3ff;"/><path d="M107.632,80.177c0,1.609 -1.306,2.915 -2.915,2.915c-1.609,0 -2.915,-1.306 -2.915,-2.915c0,-1.609 1.306,-2.915 2.915,-2.915c1.609,0 2.915,1.306 2.915,2.915Z" style="fill:#00e3ff;"/><path d="M107.632,67.032c0,1.609 -1.306,2.915 -2.915,2.915c-1.609,0 -2.915,-1.306 -2.915,-2.915c0,-1.609 1.306,-2.915 2.915,-2.915c1.609,0 2.915,1.306 2.915,2.915Z" style="fill:#00e3ff;"/><path d="M107.632,93.047c0,1.609 -1.306,2.915 -2.915,2.915c-1.609,0 -2.915,-1.306 -2.915,-2.915c0,-1.609 1.306,-2.915 2.915,-2.915c1.609,0 2.915,1.306 2.915,2.915Z" style="fill:#00e3ff;"/><path d="M107.632,106.089c0,1.609 -1.306,2.915 -2.915,2.915c-1.609,0 -2.915,-1.306 -2.915,-2.915c0,-1.609 1.306,-2.915 2.915,-2.915c1.609,0 2.915,1.306 2.915,2.915Z" style="fill:#00e3ff;"/><path d="M94.915,16.068c0,1.609 -1.306,2.915 -2.915,2.915c-1.609,0 -2.915,-1.306 -2.915,-2.915c0,-1.609 1.306,-2.915 2.915,-2.915c1.609,0 2.915,1.306 2.915,2.915Z" style="fill:#00e3ff;"/><path d="M94.915,2.923c0,1.609 -1.306,2.915 -2.915,2.915c-1.609,0 -2.915,-1.306 -2.915,-2.915c0,-1.609 1.306,-2.915 2.915,-2.915c1.609,0 2.915,1.306 2.915,2.915Z" style="fill:#00e3ff;"/><path d="M94.915,28.938c0,1.609 -1.306,2.915 -2.915,2.915c-1.609,0 -2.915,-1.306 -2.915,-2.915c0,-1.609 1.306,-2.915 2.915,-2.915c1.609,0 2.915,1.306 2.915,2.915Z" style="fill:#00e3ff;"/><path d="M94.915,41.98c0,1.609 -1.306,2.915 -2.915,2.915c-1.609,0 -2.915,-1.306 -2.915,-2.915c0,-1.609 1.306,-2.915 2.915,-2.915c1.609,0 2.915,1.306 2.915,2.915Z" style="fill:#00e3ff;"/><path d="M94.915,55.043c0,1.609 -1.306,2.915 -2.915,2.915c-1.609,0 -2.915,-1.306 -2.915,-2.915c0,-1.609 1.306,-2.915 2.915,-2.915c1.609,0 2.915,1.306 2.915,2.915Z" style="fill:#00e3ff;"/><path d="M94.915,80.186c0,1.609 -1.306,2.915 -2.915,2.915c-1.609,0 -2.915,-1.306 -2.915,-2.915c0,-1.609 1.306,-2.915 2.915,-2.915c1.609,0 2.915,1.306 2.915,2.915Z" style="fill:#00e3ff;"/><path d="M94.915,67.041c0,1.609 -1.306,2.915 -2.915,2.915c-1.609,0 -2.915,-1.306 -2.915,-2.915c0,-1.609 1.306,-2.915 2.915,-2.915c1.609,0 2.915,1.306 2.915,2.915Z" style="fill:#00e3ff;"/><path d="M94.915,93.056c0,1.609 -1.306,2.915 -2.915,2.915c-1.609,0 -2.915,-1.306 -2.915,-2.915c0,-1.609 1.306,-2.915 2.915,-2.915c1.609,0 2.915,1.306 2.915,2.915Z" style="fill:#00e3ff;"/><path d="M94.915,106.097c0,1.609 -1.306,2.915 -2.915,2.915c-1.609,0 -2.915,-1.306 -2.915,-2.915c0,-1.609 1.306,-2.915 2.915,-2.915c1.609,0 2.915,1.306 2.915,2.915Z" style="fill:#00e3ff;"/><path d="M82.18,16.072c0,1.609 -1.306,2.915 -2.915,2.915c-1.609,0 -2.915,-1.306 -2.915,-2.915c0,-1.609 1.306,-2.915 2.915,-2.915c1.609,0 2.915,1.306 2.915,2.915Z" style="fill:#00e3ff;"/><path d="M82.18,2.927c0,1.609 -1.306,2.915 -2.915,2.915c-1.609,0 -2.915,-1.306 -2.915,-2.915c0,-1.609 1.306,-2.915 2.915,-2.915c1.609,0 2.915,1.306 2.915,2.915Z" style="fill:#00e3ff;"/><path d="M82.18,28.942c0,1.609 -1.306,2.915 -2.915,2.915c-1.609,0 -2.915,-1.306 -2.915,-2.915c0,-1.609 1.306,-2.915 2.915,-2.915c1.609,0 2.915,1.306 2.915,2.915Z" style="fill:#00e3ff;"/><path d="M82.18,41.984c0,1.609 -1.306,2.915 -2.915,2.915c-1.609,0 -2.915,-1.306 -2.915,-2.915c0,-1.609 1.306,-2.915 2.915,-2.915c1.609,0 2.915,1.306 2.915,2.915Z" style="fill:#00e3ff;"/><path d="M82.18,55.047c0,1.609 -1.306,2.915 -2.915,2.915c-1.609,0 -2.915,-1.306 -2.915,-2.915c0,-1.609 1.306,-2.915 2.915,-2.915c1.609,0 2.915,1.306 2.915,2.915Z" style="fill:#00e3ff;"/><path d="M82.18,80.19c0,1.609 -1.306,2.915 -2.915,2.915c-1.609,0 -2.915,-1.306 -2.915,-2.915c0,-1.609 1.306,-2.915 2.915,-2.915c1.609,0 2.915,1.306 2.915,2.915Z" style="fill:#00e3ff;"/><path d="M82.18,67.045c0,1.609 -1.306,2.915 -2.915,2.915c-1.609,0 -2.915,-1.306 -2.915,-2.915c0,-1.609 1.306,-2.915 2.915,-2.915c1.609,0 2.915,1.306 2.915,2.915Z" style="fill:#00e3ff;"/><path d="M82.18,93.06c0,1.609 -1.306,2.915 -2.915,2.915c-1.609,0 -2.915,-1.306 -2.915,-2.915c0,-1.609 1.306,-2.915 2.915,-2.915c1.609,0 2.915,1.306 2.915,2.915Z" style="fill:#00e3ff;"/><path d="M82.18,106.101c0,1.609 -1.306,2.915 -2.915,2.915c-1.609,0 -2.915,-1.306 -2.915,-2.915c0,-1.609 1.306,-2.915 2.915,-2.915c1.609,0 2.915,1.306 2.915,2.915Z" style="fill:#00e3ff;"/><path d="M69.434,16.072c0,1.609 -1.306,2.915 -2.915,2.915c-1.609,0 -2.915,-1.306 -2.915,-2.915c0,-1.609 1.306,-2.915 2.915,-2.915c1.609,0 2.915,1.306 2.915,2.915Z" style="fill:#00e3ff;"/><path d="M69.434,2.927c0,1.609 -1.306,2.915 -2.915,2.915c-1.609,0 -2.915,-1.306 -2.915,-2.915c0,-1.609 1.306,-2.915 2.915,-2.915c1.609,0 2.915,1.306 2.915,2.915Z" style="fill:#00e3ff;"/><path d="M69.434,28.942c0,1.609 -1.306,2.915 -2.915,2.915c-1.609,0 -2.915,-1.306 -2.915,-2.915c0,-1.609 1.306,-2.915 2.915,-2.915c1.609,0 2.915,1.306 2.915,2.915Z" style="fill:#00e3ff;"/><path d="M69.434,41.984c0,1.609 -1.306,2.915 -2.915,2.915c-1.609,0 -2.915,-1.306 -2.915,-2.915c0,-1.609 1.306,-2.915 2.915,-2.915c1.609,0 2.915,1.306 2.915,2.915Z" style="fill:#00e3ff;"/><path d="M69.434,55.047c0,1.609 -1.306,2.915 -2.915,2.915c-1.609,0 -2.915,-1.306 -2.915,-2.915c0,-1.609 1.306,-2.915 2.915,-2.915c1.609,0 2.915,1.306 2.915,2.915Z" style="fill:#00e3ff;"/><path d="M69.434,80.19c0,1.609 -1.306,2.915 -2.915,2.915c-1.609,0 -2.915,-1.306 -2.915,-2.915c0,-1.609 1.306,-2.915 2.915,-2.915c1.609,0 2.915,1.306 2.915,2.915Z" style="fill:#00e3ff;"/><path d="M69.434,67.045c0,1.609 -1.306,2.915 -2.915,2.915c-1.609,0 -2.915,-1.306 -2.915,-2.915c0,-1.609 1.306,-2.915 2.915,-2.915c1.609,0 2.915,1.306 2.915,2.915Z" style="fill:#00e3ff;"/><path d="M69.434,93.06c0,1.609 -1.306,2.915 -2.915,2.915c-1.609,0 -2.915,-1.306 -2.915,-2.915c0,-1.609 1.306,-2.915 2.915,-2.915c1.609,0 2.915,1.306 2.915,2.915Z" style="fill:#00e3ff;"/><path d="M69.434,106.101c0,1.609 -1.306,2.915 -2.915,2.915c-1.609,0 -2.915,-1.306 -2.915,-2.915c0,-1.609 1.306,-2.915 2.915,-2.915c1.609,0 2.915,1.306 2.915,2.915Z" style="fill:#00e3ff;"/><path d="M56.718,16.08c0,1.609 -1.306,2.915 -2.915,2.915c-1.609,0 -2.915,-1.306 -2.915,-2.915c0,-1.609 1.306,-2.915 2.915,-2.915c1.609,0 2.915,1.306 2.915,2.915Z" style="fill:#00e3ff;"/><path d="M56.718,2.935c0,1.609 -1.306,2.915 -2.915,2.915c-1.609,0 -2.915,-1.306 -2.915,-2.915c0,-1.609 1.306,-2.915 2.915,-2.915c1.609,0 2.915,1.306 2.915,2.915Z" style="fill:#00e3ff;"/><path d="M56.718,28.95c0,1.609 -1.306,2.915 -2.915,2.915c-1.609,0 -2.915,-1.306 -2.915,-2.915c0,-1.609 1.306,-2.915 2.915,-2.915c1.609,0 2.915,1.306 2.915,2.915Z" style="fill:#00e3ff;"/><path d="M56.718,41.992c0,1.609 -1.306,2.915 -2.915,2.915c-1.609,0 -2.915,-1.306 -2.915,-2.915c0,-1.609 1.306,-2.915 2.915,-2.915c1.609,0 2.915,1.306 2.915,2.915Z" style="fill:#00e3ff;"/><path d="M56.718,55.055c0,1.609 -1.306,2.915 -2.915,2.915c-1.609,0 -2.915,-1.306 -2.915,-2.915c0,-1.609 1.306,-2.915 2.915,-2.915c1.609,0 2.915,1.306 2.915,2.915Z" style="fill:#00e3ff;"/><path d="M56.718,80.198c0,1.609 -1.306,2.915 -2.915,2.915c-1.609,0 -2.915,-1.306 -2.915,-2.915c0,-1.609 1.306,-2.915 2.915,-2.915c1.609,0 2.915,1.306 2.915,2.915Z" style="fill:#00e3ff;"/><path d="M56.718,67.053c0,1.609 -1.306,2.915 -2.915,2.915c-1.609,0 -2.915,-1.306 -2.915,-2.915c0,-1.609 1.306,-2.915 2.915,-2.915c1.609,0 2.915,1.306 2.915,2.915Z" style="fill:#00e3ff;"/><path d="M56.718,93.068c0,1.609 -1.306,2.915 -2.915,2.915c-1.609,0 -2.915,-1.306 -2.915,-2.915c0,-1.609 1.306,-2.915 2.915,-2.915c1.609,0 2.915,1.306 2.915,2.915Z" style="fill:#00e3ff;"/><path d="M56.718,106.11c0,1.609 -1.306,2.915 -2.915,2.915c-1.609,0 -2.915,-1.306 -2.915,-2.915c0,-1.609 1.306,-2.915 2.915,-2.915c1.609,0 2.915,1.306 2.915,2.915Z" style="fill:#00e3ff;"/><path d="M43.983,16.06c0,1.609 -1.306,2.915 -2.915,2.915c-1.609,0 -2.915,-1.306 -2.915,-2.915c0,-1.609 1.306,-2.915 2.915,-2.915c1.609,0 2.915,1.306 2.915,2.915Z" style="fill:#00e3ff;"/><path d="M43.983,2.915c0,1.609 -1.306,2.915 -2.915,2.915c-1.609,0 -2.915,-1.306 -2.915,-2.915c0,-1.609 1.306,-2.915 2.915,-2.915c1.609,0 2.915,1.306 2.915,2.915Z" style="fill:#00e3ff;"/><path d="M43.983,28.93c0,1.609 -1.306,2.915 -2.915,2.915c-1.609,0 -2.915,-1.306 -2.915,-2.915c0,-1.609 1.306,-2.915 2.915,-2.915c1.609,0 2.915,1.306 2.915,2.915Z" style="fill:#00e3ff;"/><path d="M43.983,41.972c0,1.609 -1.306,2.915 -2.915,2.915c-1.609,0 -2.915,-1.306 -2.915,-2.915c0,-1.609 1.306,-2.915 2.915,-2.915c1.609,0 2.915,1.306 2.915,2.915Z" style="fill:#00e3ff;"/><path d="M43.983,55.035c0,1.609 -1.306,2.915 -2.915,2.915c-1.609,0 -2.915,-1.306 -2.915,-2.915c0,-1.609 1.306,-2.915 2.915,-2.915c1.609,0 2.915,1.306 2.915,2.915Z" style="fill:#00e3ff;"/><path d="M43.983,80.177c0,1.609 -1.306,2.915 -2.915,2.915c-1.609,0 -2.915,-1.306 -2.915,-2.915c0,-1.609 1.306,-2.915 2.915,-2.915c1.609,0 2.915,1.306 2.915,2.915Z" style="fill:#00e3ff;"/><path d="M43.983,67.032c0,1.609 -1.306,2.915 -2.915,2.915c-1.609,0 -2.915,-1.306 -2.915,-2.915c0,-1.609 1.306,-2.915 2.915,-2.915c1.609,0 2.915,1.306 2.915,2.915Z" style="fill:#00e3ff;"/><path d="M43.983,93.047c0,1.609 -1.306,2.915 -2.915,2.915c-1.609,0 -2.915,-1.306 -2.915,-2.915c0,-1.609 1.306,-2.915 2.915,-2.915c1.609,0 2.915,1.306 2.915,2.915Z" style="fill:#00e3ff;"/><path d="M43.983,106.089c0,1.609 -1.306,2.915 -2.915,2.915c-1.609,0 -2.915,-1.306 -2.915,-2.915c0,-1.609 1.306,-2.915 2.915,-2.915c1.609,0 2.915,1.306 2.915,2.915Z" style="fill:#00e3ff;"/><path d="M31.237,16.06c0,1.609 -1.306,2.915 -2.915,2.915c-1.609,0 -2.915,-1.306 -2.915,-2.915c0,-1.609 1.306,-2.915 2.915,-2.915c1.609,0 2.915,1.306 2.915,2.915Z" style="fill:#00e3ff;"/><path d="M31.237,2.915c0,1.609 -1.306,2.915 -2.915,2.915c-1.609,0 -2.915,-1.306 -2.915,-2.915c0,-1.609 1.306,-2.915 2.915,-2.915c1.609,0 2.915,1.306 2.915,2.915Z" style="fill:#00e3ff;"/><path d="M31.237,28.93c0,1.609 -1.306,2.915 -2.915,2.915c-1.609,0 -2.915,-1.306 -2.915,-2.915c0,-1.609 1.306,-2.915 2.915,-2.915c1.609,0 2.915,1.306 2.915,2.915Z" style="fill:#00e3ff;"/><path d="M31.237,41.972c0,1.609 -1.306,2.915 -2.915,2.915c-1.609,0 -2.915,-1.306 -2.915,-2.915c0,-1.609 1.306,-2.915 2.915,-2.915c1.609,0 2.915,1.306 2.915,2.915Z" style="fill:#00e3ff;"/><path d="M31.237,55.035c0,1.609 -1.306,2.915 -2.915,2.915c-1.609,0 -2.915,-1.306 -2.915,-2.915c0,-1.609 1.306,-2.915 2.915,-2.915c1.609,0 2.915,1.306 2.915,2.915Z" style="fill:#00e3ff;"/><path d="M31.237,80.177c0,1.609 -1.306,2.915 -2.915,2.915c-1.609,0 -2.915,-1.306 -2.915,-2.915c0,-1.609 1.306,-2.915 2.915,-2.915c1.609,0 2.915,1.306 2.915,2.915Z" style="fill:#00e3ff;"/><path d="M31.237,67.032c0,1.609 -1.306,2.915 -2.915,2.915c-1.609,0 -2.915,-1.306 -2.915,-2.915c0,-1.609 1.306,-2.915 2.915,-2.915c1.609,0 2.915,1.306 2.915,2.915Z" style="fill:#00e3ff;"/><path d="M31.237,93.047c0,1.609 -1.306,2.915 -2.915,2.915c-1.609,0 -2.915,-1.306 -2.915,-2.915c0,-1.609 1.306,-2.915 2.915,-2.915c1.609,0 2.915,1.306 2.915,2.915Z" style="fill:#00e3ff;"/><path d="M31.237,106.089c0,1.609 -1.306,2.915 -2.915,2.915c-1.609,0 -2.915,-1.306 -2.915,-2.915c0,-1.609 1.306,-2.915 2.915,-2.915c1.609,0 2.915,1.306 2.915,2.915Z" style="fill:#00e3ff;"/><path d="M18.52,16.068c0,1.609 -1.306,2.915 -2.915,2.915c-1.609,0 -2.915,-1.306 -2.915,-2.915c0,-1.609 1.306,-2.915 2.915,-2.915c1.609,0 2.915,1.306 2.915,2.915Z" style="fill:#00e3ff;"/><path d="M18.52,2.923c0,1.609 -1.306,2.915 -2.915,2.915c-1.609,0 -2.915,-1.306 -2.915,-2.915c0,-1.609 1.306,-2.915 2.915,-2.915c1.609,0 2.915,1.306 2.915,2.915Z" style="fill:#00e3ff;"/><path d="M18.52,28.938c0,1.609 -1.306,2.915 -2.915,2.915c-1.609,0 -2.915,-1.306 -2.915,-2.915c0,-1.609 1.306,-2.915 2.915,-2.915c1.609,0 2.915,1.306 2.915,2.915Z" style="fill:#00e3ff;"/><path d="M18.52,41.98c0,1.609 -1.306,2.915 -2.915,2.915c-1.609,0 -2.915,-1.306 -2.915,-2.915c0,-1.609 1.306,-2.915 2.915,-2.915c1.609,0 2.915,1.306 2.915,2.915Z" style="fill:#00e3ff;"/><path d="M18.52,55.043c0,1.609 -1.306,2.915 -2.915,2.915c-1.609,0 -2.915,-1.306 -2.915,-2.915c0,-1.609 1.306,-2.915 2.915,-2.915c1.609,0 2.915,1.306 2.915,2.915Z" style="fill:#00e3ff;"/><path d="M18.52,80.186c0,1.609 -1.306,2.915 -2.915,2.915c-1.609,0 -2.915,-1.306 -2.915,-2.915c0,-1.609 1.306,-2.915 2.915,-2.915c1.609,0 2.915,1.306 2.915,2.915Z" style="fill:#00e3ff;"/><path d="M18.52,67.041c0,1.609 -1.306,2.915 -2.915,2.915c-1.609,0 -2.915,-1.306 -2.915,-2.915c0,-1.609 1.306,-2.915 2.915,-2.915c1.609,0 2.915,1.306 2.915,2.915Z" style="fill:#00e3ff;"/><path d="M18.52,93.056c0,1.609 -1.306,2.915 -2.915,2.915c-1.609,0 -2.915,-1.306 -2.915,-2.915c0,-1.609 1.306,-2.915 2.915,-2.915c1.609,0 2.915,1.306 2.915,2.915Z" style="fill:#00e3ff;"/><path d="M18.52,106.097c0,1.609 -1.306,2.915 -2.915,2.915c-1.609,0 -2.915,-1.306 -2.915,-2.915c0,-1.609 1.306,-2.915 2.915,-2.915c1.609,0 2.915,1.306 2.915,2.915Z" style="fill:#00e3ff;"/><path d="M5.83,16.068c0,1.609 -1.306,2.915 -2.915,2.915c-1.609,0 -2.915,-1.306 -2.915,-2.915c0,-1.609 1.306,-2.915 2.915,-2.915c1.609,0 2.915,1.306 2.915,2.915Z" style="fill:#00e3ff;"/><path d="M5.83,2.923c0,1.609 -1.306,2.915 -2.915,2.915c-1.609,0 -2.915,-1.306 -2.915,-2.915c0,-1.609 1.306,-2.915 2.915,-2.915c1.609,0 2.915,1.306 2.915,2.915Z" style="fill:#00e3ff;"/><path d="M5.83,28.938c0,1.609 -1.306,2.915 -2.915,2.915c-1.609,0 -2.915,-1.306 -2.915,-2.915c0,-1.609 1.306,-2.915 2.915,-2.915c1.609,0 2.915,1.306 2.915,2.915Z" style="fill:#00e3ff;"/><path d="M5.83,41.98c0,1.609 -1.306,2.915 -2.915,2.915c-1.609,0 -2.915,-1.306 -2.915,-2.915c0,-1.609 1.306,-2.915 2.915,-2.915c1.609,0 2.915,1.306 2.915,2.915Z" style="fill:#00e3ff;"/><path d="M5.83,55.043c0,1.609 -1.306,2.915 -2.915,2.915c-1.609,0 -2.915,-1.306 -2.915,-2.915c0,-1.609 1.306,-2.915 2.915,-2.915c1.609,0 2.915,1.306 2.915,2.915Z" style="fill:#00e3ff;"/><path d="M5.83,80.186c0,1.609 -1.306,2.915 -2.915,2.915c-1.609,0 -2.915,-1.306 -2.915,-2.915c0,-1.609 1.306,-2.915 2.915,-2.915c1.609,0 2.915,1.306 2.915,2.915Z" style="fill:#00e3ff;"/><path d="M5.83,67.041c0,1.609 -1.306,2.915 -2.915,2.915c-1.609,0 -2.915,-1.306 -2.915,-2.915c0,-1.609 1.306,-2.915 2.915,-2.915c1.609,0 2.915,1.306 2.915,2.915Z" style="fill:#00e3ff;"/><path d="M5.83,93.056c0,1.609 -1.306,2.915 -2.915,2.915c-1.609,0 -2.915,-1.306 -2.915,-2.915c0,-1.609 1.306,-2.915 2.915,-2.915c1.609,0 2.915,1.306 2.915,2.915Z" style="fill:#00e3ff;"/><path d="M5.83,106.097c0,1.609 -1.306,2.915 -2.915,2.915c-1.609,0 -2.915,-1.306 -2.915,-2.915c0,-1.609 1.306,-2.915 2.915,-2.915c1.609,0 2.915,1.306 2.915,2.915Z" style="fill:#00e3ff;"/></svg>
