<?xml version="1.0" encoding="UTF-8" standalone="no"?><!DOCTYPE svg PUBLIC "-//W3C//DTD SVG 1.1//EN" "http://www.w3.org/Graphics/SVG/1.1/DTD/svg11.dtd"><svg width="100%" height="100%" viewBox="0 0 99 83" version="1.1" xmlns="http://www.w3.org/2000/svg" xmlns:xlink="http://www.w3.org/1999/xlink" xml:space="preserve" style="fill-rule:evenodd;clip-rule:evenodd;stroke-linejoin:round;stroke-miterlimit:1.41421;"><path d="M83.295,2.39l-3.242,21.376l-16.64,-2.403l-2.23,16.32l-16.516,-2.912l-2.276,16.492l-16.363,-2.695l-2.499,16.272l-21.896,-3.463l0.775,-4.898l16.976,2.685l2.503,-16.304l16.288,2.683l2.284,-16.549l16.509,2.911l2.208,-16.164l16.712,2.414l2.504,-16.508l4.903,0.743Z" style="fill:#4d07eb;"/><path d="M95.996,20.433l-2.87,18.925l-16.64,-2.404l-2.229,16.321l-16.517,-2.912l-2.275,16.492l-16.364,-2.695l-2.499,16.272l-19.446,-3.076l0.774,-4.898l14.527,2.298l2.504,-16.304l16.287,2.683l2.284,-16.549l16.509,2.911l2.208,-16.165l16.713,2.414l2.132,-14.056l4.902,0.743Z" style="fill:#4d07eb;"/></svg>
