<?xml version="1.0" encoding="UTF-8" standalone="no"?><!DOCTYPE svg PUBLIC "-//W3C//DTD SVG 1.1//EN" "http://www.w3.org/Graphics/SVG/1.1/DTD/svg11.dtd"><svg width="100%" height="100%" viewBox="0 0 110 184" version="1.1" xmlns="http://www.w3.org/2000/svg" xmlns:xlink="http://www.w3.org/1999/xlink" xml:space="preserve" style="fill-rule:evenodd;clip-rule:evenodd;stroke-linejoin:round;stroke-miterlimit:1.41421;"><circle cx="16.072" cy="2.915" r="2.915" style="fill:#00e3ff;"/><circle cx="2.927" cy="2.915" r="2.915" style="fill:#00e3ff;"/><circle cx="28.942" cy="2.915" r="2.915" style="fill:#00e3ff;"/><circle cx="41.984" cy="2.915" r="2.915" style="fill:#00e3ff;"/><circle cx="55.047" cy="2.915" r="2.915" style="fill:#00e3ff;"/><circle cx="80.19" cy="2.915" r="2.915" style="fill:#00e3ff;"/><circle cx="67.045" cy="2.915" r="2.915" style="fill:#00e3ff;"/><circle cx="93.06" cy="2.915" r="2.915" style="fill:#00e3ff;"/><circle cx="106.101" cy="2.915" r="2.915" style="fill:#00e3ff;"/><circle cx="16.068" cy="15.501" r="2.915" style="fill:#00e3ff;"/><circle cx="2.923" cy="15.501" r="2.915" style="fill:#00e3ff;"/><circle cx="28.938" cy="15.501" r="2.915" style="fill:#00e3ff;"/><circle cx="41.98" cy="15.501" r="2.915" style="fill:#00e3ff;"/><circle cx="55.043" cy="15.501" r="2.915" style="fill:#00e3ff;"/><circle cx="80.186" cy="15.501" r="2.915" style="fill:#00e3ff;"/><circle cx="67.041" cy="15.501" r="2.915" style="fill:#00e3ff;"/><circle cx="93.056" cy="15.501" r="2.915" style="fill:#00e3ff;"/><circle cx="106.097" cy="15.501" r="2.915" style="fill:#00e3ff;"/><circle cx="16.068" cy="28.247" r="2.915" style="fill:#00e3ff;"/><circle cx="2.923" cy="28.247" r="2.915" style="fill:#00e3ff;"/><circle cx="28.938" cy="28.247" r="2.915" style="fill:#00e3ff;"/><circle cx="41.98" cy="28.247" r="2.915" style="fill:#00e3ff;"/><circle cx="55.043" cy="28.247" r="2.915" style="fill:#00e3ff;"/><circle cx="80.186" cy="28.247" r="2.915" style="fill:#00e3ff;"/><circle cx="67.041" cy="28.247" r="2.915" style="fill:#00e3ff;"/><circle cx="93.056" cy="28.247" r="2.915" style="fill:#00e3ff;"/><circle cx="106.097" cy="28.247" r="2.915" style="fill:#00e3ff;"/><circle cx="16.064" cy="40.833" r="2.915" style="fill:#00e3ff;"/><circle cx="2.919" cy="40.833" r="2.915" style="fill:#00e3ff;"/><circle cx="28.934" cy="40.833" r="2.915" style="fill:#00e3ff;"/><circle cx="41.976" cy="40.833" r="2.915" style="fill:#00e3ff;"/><circle cx="55.039" cy="40.833" r="2.915" style="fill:#00e3ff;"/><circle cx="80.182" cy="40.833" r="2.915" style="fill:#00e3ff;"/><circle cx="67.037" cy="40.833" r="2.915" style="fill:#00e3ff;"/><circle cx="93.051" cy="40.833" r="2.915" style="fill:#00e3ff;"/><circle cx="106.093" cy="40.833" r="2.915" style="fill:#00e3ff;"/><circle cx="16.064" cy="53.952" r="2.915" style="fill:#00e3ff;"/><circle cx="2.919" cy="53.952" r="2.915" style="fill:#00e3ff;"/><circle cx="28.934" cy="53.952" r="2.915" style="fill:#00e3ff;"/><circle cx="41.976" cy="53.952" r="2.915" style="fill:#00e3ff;"/><circle cx="55.039" cy="53.952" r="2.915" style="fill:#00e3ff;"/><circle cx="80.182" cy="53.952" r="2.915" style="fill:#00e3ff;"/><circle cx="67.037" cy="53.952" r="2.915" style="fill:#00e3ff;"/><circle cx="93.051" cy="53.952" r="2.915" style="fill:#00e3ff;"/><circle cx="106.093" cy="53.952" r="2.915" style="fill:#00e3ff;"/><circle cx="16.06" cy="66.538" r="2.915" style="fill:#00e3ff;"/><circle cx="2.915" cy="66.538" r="2.915" style="fill:#00e3ff;"/><circle cx="28.93" cy="66.538" r="2.915" style="fill:#00e3ff;"/><circle cx="41.972" cy="66.538" r="2.915" style="fill:#00e3ff;"/><circle cx="55.035" cy="66.538" r="2.915" style="fill:#00e3ff;"/><circle cx="80.177" cy="66.538" r="2.915" style="fill:#00e3ff;"/><circle cx="67.032" cy="66.538" r="2.915" style="fill:#00e3ff;"/><circle cx="93.047" cy="66.538" r="2.915" style="fill:#00e3ff;"/><circle cx="106.089" cy="66.538" r="2.915" style="fill:#00e3ff;"/><circle cx="16.06" cy="79.283" r="2.915" style="fill:#00e3ff;"/><circle cx="2.915" cy="79.283" r="2.915" style="fill:#00e3ff;"/><circle cx="28.93" cy="79.283" r="2.915" style="fill:#00e3ff;"/><circle cx="41.972" cy="79.283" r="2.915" style="fill:#00e3ff;"/><circle cx="55.035" cy="79.283" r="2.915" style="fill:#00e3ff;"/><circle cx="80.177" cy="79.283" r="2.915" style="fill:#00e3ff;"/><circle cx="67.032" cy="79.283" r="2.915" style="fill:#00e3ff;"/><circle cx="93.047" cy="79.283" r="2.915" style="fill:#00e3ff;"/><circle cx="106.089" cy="79.283" r="2.915" style="fill:#00e3ff;"/><circle cx="16.068" cy="92" r="2.915" style="fill:#00e3ff;"/><circle cx="2.923" cy="92" r="2.915" style="fill:#00e3ff;"/><circle cx="28.938" cy="92" r="2.915" style="fill:#00e3ff;"/><circle cx="41.98" cy="92" r="2.915" style="fill:#00e3ff;"/><circle cx="55.043" cy="92" r="2.915" style="fill:#00e3ff;"/><circle cx="80.186" cy="92" r="2.915" style="fill:#00e3ff;"/><circle cx="67.041" cy="92" r="2.915" style="fill:#00e3ff;"/><circle cx="93.056" cy="92" r="2.915" style="fill:#00e3ff;"/><circle cx="106.097" cy="92" r="2.915" style="fill:#00e3ff;"/><circle cx="16.072" cy="104.735" r="2.915" style="fill:#00e3ff;"/><circle cx="2.927" cy="104.735" r="2.915" style="fill:#00e3ff;"/><circle cx="28.942" cy="104.735" r="2.915" style="fill:#00e3ff;"/><circle cx="41.984" cy="104.735" r="2.915" style="fill:#00e3ff;"/><circle cx="55.047" cy="104.735" r="2.915" style="fill:#00e3ff;"/><circle cx="80.19" cy="104.735" r="2.915" style="fill:#00e3ff;"/><circle cx="67.045" cy="104.735" r="2.915" style="fill:#00e3ff;"/><circle cx="93.06" cy="104.735" r="2.915" style="fill:#00e3ff;"/><circle cx="106.101" cy="104.735" r="2.915" style="fill:#00e3ff;"/><circle cx="16.072" cy="117.481" r="2.915" style="fill:#00e3ff;"/><circle cx="2.927" cy="117.481" r="2.915" style="fill:#00e3ff;"/><circle cx="28.942" cy="117.481" r="2.915" style="fill:#00e3ff;"/><circle cx="41.984" cy="117.481" r="2.915" style="fill:#00e3ff;"/><circle cx="55.047" cy="117.481" r="2.915" style="fill:#00e3ff;"/><circle cx="80.19" cy="117.481" r="2.915" style="fill:#00e3ff;"/><circle cx="67.045" cy="117.481" r="2.915" style="fill:#00e3ff;"/><circle cx="93.06" cy="117.481" r="2.915" style="fill:#00e3ff;"/><circle cx="106.101" cy="117.481" r="2.915" style="fill:#00e3ff;"/><circle cx="16.08" cy="130.197" r="2.915" style="fill:#00e3ff;"/><circle cx="2.935" cy="130.197" r="2.915" style="fill:#00e3ff;"/><circle cx="28.95" cy="130.197" r="2.915" style="fill:#00e3ff;"/><circle cx="41.992" cy="130.197" r="2.915" style="fill:#00e3ff;"/><circle cx="55.055" cy="130.197" r="2.915" style="fill:#00e3ff;"/><circle cx="80.198" cy="130.197" r="2.915" style="fill:#00e3ff;"/><circle cx="67.053" cy="130.197" r="2.915" style="fill:#00e3ff;"/><circle cx="93.068" cy="130.197" r="2.915" style="fill:#00e3ff;"/><circle cx="106.11" cy="130.197" r="2.915" style="fill:#00e3ff;"/><circle cx="16.06" cy="142.932" r="2.915" style="fill:#00e3ff;"/><circle cx="2.915" cy="142.932" r="2.915" style="fill:#00e3ff;"/><circle cx="28.93" cy="142.932" r="2.915" style="fill:#00e3ff;"/><circle cx="41.972" cy="142.932" r="2.915" style="fill:#00e3ff;"/><circle cx="55.035" cy="142.932" r="2.915" style="fill:#00e3ff;"/><circle cx="80.177" cy="142.932" r="2.915" style="fill:#00e3ff;"/><circle cx="67.032" cy="142.932" r="2.915" style="fill:#00e3ff;"/><circle cx="93.047" cy="142.932" r="2.915" style="fill:#00e3ff;"/><circle cx="106.089" cy="142.932" r="2.915" style="fill:#00e3ff;"/><circle cx="16.06" cy="155.678" r="2.915" style="fill:#00e3ff;"/><circle cx="2.915" cy="155.678" r="2.915" style="fill:#00e3ff;"/><circle cx="28.93" cy="155.678" r="2.915" style="fill:#00e3ff;"/><circle cx="41.972" cy="155.678" r="2.915" style="fill:#00e3ff;"/><circle cx="55.035" cy="155.678" r="2.915" style="fill:#00e3ff;"/><circle cx="80.177" cy="155.678" r="2.915" style="fill:#00e3ff;"/><circle cx="67.032" cy="155.678" r="2.915" style="fill:#00e3ff;"/><circle cx="93.047" cy="155.678" r="2.915" style="fill:#00e3ff;"/><circle cx="106.089" cy="155.678" r="2.915" style="fill:#00e3ff;"/><circle cx="16.068" cy="168.395" r="2.915" style="fill:#00e3ff;"/><circle cx="2.923" cy="168.395" r="2.915" style="fill:#00e3ff;"/><circle cx="28.938" cy="168.395" r="2.915" style="fill:#00e3ff;"/><circle cx="41.98" cy="168.395" r="2.915" style="fill:#00e3ff;"/><circle cx="55.043" cy="168.395" r="2.915" style="fill:#00e3ff;"/><circle cx="80.186" cy="168.395" r="2.915" style="fill:#00e3ff;"/><circle cx="67.041" cy="168.395" r="2.915" style="fill:#00e3ff;"/><circle cx="93.056" cy="168.395" r="2.915" style="fill:#00e3ff;"/><circle cx="106.097" cy="168.395" r="2.915" style="fill:#00e3ff;"/><circle cx="16.068" cy="181.085" r="2.915" style="fill:#00e3ff;"/><circle cx="2.923" cy="181.085" r="2.915" style="fill:#00e3ff;"/><circle cx="28.938" cy="181.085" r="2.915" style="fill:#00e3ff;"/><circle cx="41.98" cy="181.085" r="2.915" style="fill:#00e3ff;"/><circle cx="55.043" cy="181.085" r="2.915" style="fill:#00e3ff;"/><circle cx="80.186" cy="181.085" r="2.915" style="fill:#00e3ff;"/><circle cx="67.041" cy="181.085" r="2.915" style="fill:#00e3ff;"/><circle cx="93.056" cy="181.085" r="2.915" style="fill:#00e3ff;"/><circle cx="106.097" cy="181.085" r="2.915" style="fill:#00e3ff;"/></svg>
