<?xml version="1.0" encoding="UTF-8" standalone="no"?><!DOCTYPE svg PUBLIC "-//W3C//DTD SVG 1.1//EN" "http://www.w3.org/Graphics/SVG/1.1/DTD/svg11.dtd"><svg width="100%" height="100%" viewBox="0 0 591 142" version="1.1" xmlns="http://www.w3.org/2000/svg" xmlns:xlink="http://www.w3.org/1999/xlink" xml:space="preserve" style="fill-rule:evenodd;clip-rule:evenodd;stroke-miterlimit:1.5;"><path d="M1.803,1.912l6.737,6.443l5.957,-6.037l6.004,5.927l6.183,-5.927l6.004,5.927l5.955,-5.927l6.187,5.927l6.046,-5.927l5.958,5.927l6.048,-5.927l6.095,5.927l5.956,-5.927l6.049,5.927" style="fill:none;stroke:#4d07eb;stroke-width:2px;"/><path d="M74.342,1.803l6.738,6.442l5.957,-6.036l6.003,5.927l6.183,-5.927l6.004,5.927l5.956,-5.927l6.187,5.927l6.046,-5.927l5.957,5.927l6.049,-5.927l6.094,5.927l5.956,-5.927l6.05,5.927" style="fill:none;stroke:#4d07eb;stroke-width:2px;"/><path d="M1.803,13.884l6.737,6.442l5.957,-6.036l6.004,5.927l6.183,-5.927l6.004,5.927l5.955,-5.927l6.187,5.927l6.046,-5.927l5.958,5.927l6.048,-5.927l6.095,5.927l5.956,-5.927l6.049,5.927" style="fill:none;stroke:#4d07eb;stroke-width:2px;"/><path d="M74.342,13.774l6.738,6.443l5.957,-6.037l6.003,5.927l6.183,-5.927l6.004,5.927l5.956,-5.927l6.187,5.927l6.046,-5.927l5.957,5.927l6.049,-5.927l6.094,5.927l5.956,-5.927l6.05,5.927" style="fill:none;stroke:#4d07eb;stroke-width:2px;"/><path d="M1.803,25.901l6.737,6.443l5.957,-6.037l6.004,5.927l6.183,-5.927l6.004,5.927l5.955,-5.927l6.187,5.927l6.046,-5.927l5.958,5.927l6.048,-5.927l6.095,5.927l5.956,-5.927l6.049,5.927" style="fill:none;stroke:#4d07eb;stroke-width:2px;"/><path d="M74.342,25.791l6.738,6.443l5.957,-6.037l6.003,5.928l6.183,-5.928l6.004,5.928l5.956,-5.928l6.187,5.928l6.046,-5.928l5.957,5.928l6.049,-5.928l6.094,5.928l5.956,-5.928l6.05,5.928" style="fill:none;stroke:#4d07eb;stroke-width:2px;"/><path d="M1.803,37.872l6.737,6.443l5.957,-6.037l6.004,5.928l6.183,-5.928l6.004,5.928l5.955,-5.928l6.187,5.928l6.046,-5.928l5.958,5.928l6.048,-5.928l6.095,5.928l5.956,-5.928l6.049,5.928" style="fill:none;stroke:#4d07eb;stroke-width:2px;"/><path d="M74.342,37.763l6.738,6.443l5.957,-6.037l6.003,5.927l6.183,-5.927l6.004,5.927l5.956,-5.927l6.187,5.927l6.046,-5.927l5.957,5.927l6.049,-5.927l6.094,5.927l5.956,-5.927l6.05,5.927" style="fill:none;stroke:#4d07eb;stroke-width:2px;"/><path d="M1.803,49.929l6.737,6.443l5.957,-6.037l6.004,5.928l6.183,-5.928l6.004,5.928l5.955,-5.928l6.187,5.928l6.046,-5.928l5.958,5.928l6.048,-5.928l6.095,5.928l5.956,-5.928l6.049,5.928" style="fill:none;stroke:#4d07eb;stroke-width:2px;"/><path d="M74.342,49.82l6.738,6.443l5.957,-6.037l6.003,5.927l6.183,-5.927l6.004,5.927l5.956,-5.927l6.187,5.927l6.046,-5.927l5.957,5.927l6.049,-5.927l6.094,5.927l5.956,-5.927l6.05,5.927" style="fill:none;stroke:#4d07eb;stroke-width:2px;"/><path d="M1.803,61.901l6.737,6.443l5.957,-6.037l6.004,5.927l6.183,-5.927l6.004,5.927l5.955,-5.927l6.187,5.927l6.046,-5.927l5.958,5.927l6.048,-5.927l6.095,5.927l5.956,-5.927l6.049,5.927" style="fill:none;stroke:#4d07eb;stroke-width:2px;"/><path d="M74.342,61.791l6.738,6.443l5.957,-6.037l6.003,5.928l6.183,-5.928l6.004,5.928l5.956,-5.928l6.187,5.928l6.046,-5.928l5.957,5.928l6.049,-5.928l6.094,5.928l5.956,-5.928l6.05,5.928" style="fill:none;stroke:#4d07eb;stroke-width:2px;"/><path d="M1.803,72.986l6.737,6.443l5.957,-6.037l6.004,5.927l6.183,-5.927l6.004,5.927l5.955,-5.927l6.187,5.927l6.046,-5.927l5.958,5.927l6.048,-5.927l6.095,5.927l5.956,-5.927l6.049,5.927" style="fill:none;stroke:#4d07eb;stroke-width:2px;"/><path d="M74.342,72.877l6.738,6.442l5.957,-6.036l6.003,5.927l6.183,-5.927l6.004,5.927l5.956,-5.927l6.187,5.927l6.046,-5.927l5.957,5.927l6.049,-5.927l6.094,5.927l5.956,-5.927l6.05,5.927" style="fill:none;stroke:#4d07eb;stroke-width:2px;"/><path d="M1.803,84.958l6.737,6.442l5.957,-6.036l6.004,5.927l6.183,-5.927l6.004,5.927l5.955,-5.927l6.187,5.927l6.046,-5.927l5.958,5.927l6.048,-5.927l6.095,5.927l5.956,-5.927l6.049,5.927" style="fill:none;stroke:#4d07eb;stroke-width:2px;"/><path d="M74.342,84.848l6.738,6.443l5.957,-6.037l6.003,5.927l6.183,-5.927l6.004,5.927l5.956,-5.927l6.187,5.927l6.046,-5.927l5.957,5.927l6.049,-5.927l6.094,5.927l5.956,-5.927l6.05,5.927" style="fill:none;stroke:#4d07eb;stroke-width:2px;"/><path d="M1.803,97.147l6.737,6.442l5.957,-6.036l6.004,5.927l6.183,-5.927l6.004,5.927l5.955,-5.927l6.187,5.927l6.046,-5.927l5.958,5.927l6.048,-5.927l6.095,5.927l5.956,-5.927l6.049,5.927" style="fill:none;stroke:#4d07eb;stroke-width:2px;"/><path d="M74.342,97.037l6.738,6.443l5.957,-6.037l6.003,5.927l6.183,-5.927l6.004,5.927l5.956,-5.927l6.187,5.927l6.046,-5.927l5.957,5.927l6.049,-5.927l6.094,5.927l5.956,-5.927l6.05,5.927" style="fill:none;stroke:#4d07eb;stroke-width:2px;"/><path d="M1.803,109.118l6.737,6.443l5.957,-6.037l6.004,5.927l6.183,-5.927l6.004,5.927l5.955,-5.927l6.187,5.927l6.046,-5.927l5.958,5.927l6.048,-5.927l6.095,5.927l5.956,-5.927l6.049,5.927" style="fill:none;stroke:#4d07eb;stroke-width:2px;"/><path d="M74.342,109.009l6.738,6.442l5.957,-6.036l6.003,5.927l6.183,-5.927l6.004,5.927l5.956,-5.927l6.187,5.927l6.046,-5.927l5.957,5.927l6.049,-5.927l6.094,5.927l5.956,-5.927l6.05,5.927" style="fill:none;stroke:#4d07eb;stroke-width:2px;"/><path d="M1.803,121.135l6.737,6.443l5.957,-6.037l6.004,5.927l6.183,-5.927l6.004,5.927l5.955,-5.927l6.187,5.927l6.046,-5.927l5.958,5.927l6.048,-5.927l6.095,5.927l5.956,-5.927l6.049,5.927" style="fill:none;stroke:#4d07eb;stroke-width:2px;"/><path d="M74.342,121.026l6.738,6.442l5.957,-6.036l6.003,5.927l6.183,-5.927l6.004,5.927l5.956,-5.927l6.187,5.927l6.046,-5.927l5.957,5.927l6.049,-5.927l6.094,5.927l5.956,-5.927l6.05,5.927" style="fill:none;stroke:#4d07eb;stroke-width:2px;"/><path d="M1.803,133.107l6.737,6.442l5.957,-6.036l6.004,5.927l6.183,-5.927l6.004,5.927l5.955,-5.927l6.187,5.927l6.046,-5.927l5.958,5.927l6.048,-5.927l6.095,5.927l5.956,-5.927l6.049,5.927" style="fill:none;stroke:#4d07eb;stroke-width:2px;"/><path d="M74.342,132.997l6.738,6.443l5.957,-6.037l6.003,5.928l6.183,-5.928l6.004,5.928l5.956,-5.928l6.187,5.928l6.046,-5.928l5.957,5.928l6.049,-5.928l6.094,5.928l5.956,-5.928l6.05,5.928" style="fill:none;stroke:#4d07eb;stroke-width:2px;"/><path d="M146.695,2.017l6.737,6.443l5.957,-6.037l6.003,5.927l6.184,-5.927l6.004,5.927l5.955,-5.927l6.187,5.927l6.046,-5.927l5.958,5.927l6.048,-5.927l6.095,5.927l5.956,-5.927l6.049,5.927" style="fill:none;stroke:#4d07eb;stroke-width:2px;"/><path d="M219.234,1.908l6.737,6.442l5.958,-6.036l6.003,5.927l6.183,-5.927l6.004,5.927l5.956,-5.927l6.187,5.927l6.045,-5.927l5.958,5.927l6.049,-5.927l6.094,5.927l5.956,-5.927l6.05,5.927" style="fill:none;stroke:#4d07eb;stroke-width:2px;"/><path d="M146.695,13.989l6.737,6.442l5.957,-6.036l6.003,5.927l6.184,-5.927l6.004,5.927l5.955,-5.927l6.187,5.927l6.046,-5.927l5.958,5.927l6.048,-5.927l6.095,5.927l5.956,-5.927l6.049,5.927" style="fill:none;stroke:#4d07eb;stroke-width:2px;"/><path d="M219.234,13.879l6.737,6.443l5.958,-6.037l6.003,5.927l6.183,-5.927l6.004,5.927l5.956,-5.927l6.187,5.927l6.045,-5.927l5.958,5.927l6.049,-5.927l6.094,5.927l5.956,-5.927l6.05,5.927" style="fill:none;stroke:#4d07eb;stroke-width:2px;"/><path d="M146.695,26.006l6.737,6.442l5.957,-6.036l6.003,5.927l6.184,-5.927l6.004,5.927l5.955,-5.927l6.187,5.927l6.046,-5.927l5.958,5.927l6.048,-5.927l6.095,5.927l5.956,-5.927l6.049,5.927" style="fill:none;stroke:#4d07eb;stroke-width:2px;"/><path d="M219.234,25.896l6.737,6.443l5.958,-6.037l6.003,5.928l6.183,-5.928l6.004,5.928l5.956,-5.928l6.187,5.928l6.045,-5.928l5.958,5.928l6.049,-5.928l6.094,5.928l5.956,-5.928l6.05,5.928" style="fill:none;stroke:#4d07eb;stroke-width:2px;"/><path d="M146.695,37.977l6.737,6.443l5.957,-6.037l6.003,5.927l6.184,-5.927l6.004,5.927l5.955,-5.927l6.187,5.927l6.046,-5.927l5.958,5.927l6.048,-5.927l6.095,5.927l5.956,-5.927l6.049,5.927" style="fill:none;stroke:#4d07eb;stroke-width:2px;"/><path d="M219.234,37.868l6.737,6.442l5.958,-6.036l6.003,5.927l6.183,-5.927l6.004,5.927l5.956,-5.927l6.187,5.927l6.045,-5.927l5.958,5.927l6.049,-5.927l6.094,5.927l5.956,-5.927l6.05,5.927" style="fill:none;stroke:#4d07eb;stroke-width:2px;"/><path d="M146.695,50.034l6.737,6.443l5.957,-6.037l6.003,5.928l6.184,-5.928l6.004,5.928l5.955,-5.928l6.187,5.928l6.046,-5.928l5.958,5.928l6.048,-5.928l6.095,5.928l5.956,-5.928l6.049,5.928" style="fill:none;stroke:#4d07eb;stroke-width:2px;"/><path d="M219.234,49.925l6.737,6.443l5.958,-6.037l6.003,5.927l6.183,-5.927l6.004,5.927l5.956,-5.927l6.187,5.927l6.045,-5.927l5.958,5.927l6.049,-5.927l6.094,5.927l5.956,-5.927l6.05,5.927" style="fill:none;stroke:#4d07eb;stroke-width:2px;"/><path d="M146.695,62.006l6.737,6.443l5.957,-6.037l6.003,5.927l6.184,-5.927l6.004,5.927l5.955,-5.927l6.187,5.927l6.046,-5.927l5.958,5.927l6.048,-5.927l6.095,5.927l5.956,-5.927l6.049,5.927" style="fill:none;stroke:#4d07eb;stroke-width:2px;"/><path d="M219.234,61.896l6.737,6.443l5.958,-6.037l6.003,5.928l6.183,-5.928l6.004,5.928l5.956,-5.928l6.187,5.928l6.045,-5.928l5.958,5.928l6.049,-5.928l6.094,5.928l5.956,-5.928l6.05,5.928" style="fill:none;stroke:#4d07eb;stroke-width:2px;"/><path d="M146.695,73.091l6.737,6.443l5.957,-6.037l6.003,5.927l6.184,-5.927l6.004,5.927l5.955,-5.927l6.187,5.927l6.046,-5.927l5.958,5.927l6.048,-5.927l6.095,5.927l5.956,-5.927l6.049,5.927" style="fill:none;stroke:#4d07eb;stroke-width:2px;"/><path d="M219.234,72.982l6.737,6.442l5.958,-6.036l6.003,5.927l6.183,-5.927l6.004,5.927l5.956,-5.927l6.187,5.927l6.045,-5.927l5.958,5.927l6.049,-5.927l6.094,5.927l5.956,-5.927l6.05,5.927" style="fill:none;stroke:#4d07eb;stroke-width:2px;"/><path d="M146.695,85.063l6.737,6.442l5.957,-6.036l6.003,5.927l6.184,-5.927l6.004,5.927l5.955,-5.927l6.187,5.927l6.046,-5.927l5.958,5.927l6.048,-5.927l6.095,5.927l5.956,-5.927l6.049,5.927" style="fill:none;stroke:#4d07eb;stroke-width:2px;"/><path d="M219.234,84.953l6.737,6.443l5.958,-6.037l6.003,5.927l6.183,-5.927l6.004,5.927l5.956,-5.927l6.187,5.927l6.045,-5.927l5.958,5.927l6.049,-5.927l6.094,5.927l5.956,-5.927l6.05,5.927" style="fill:none;stroke:#4d07eb;stroke-width:2px;"/><path d="M146.695,97.252l6.737,6.442l5.957,-6.037l6.003,5.928l6.184,-5.928l6.004,5.928l5.955,-5.928l6.187,5.928l6.046,-5.928l5.958,5.928l6.048,-5.928l6.095,5.928l5.956,-5.928l6.049,5.928" style="fill:none;stroke:#4d07eb;stroke-width:2px;"/><path d="M219.234,97.142l6.737,6.443l5.958,-6.037l6.003,5.927l6.183,-5.927l6.004,5.927l5.956,-5.927l6.187,5.927l6.045,-5.927l5.958,5.927l6.049,-5.927l6.094,5.927l5.956,-5.927l6.05,5.927" style="fill:none;stroke:#4d07eb;stroke-width:2px;"/><path d="M146.695,109.223l6.737,6.443l5.957,-6.037l6.003,5.927l6.184,-5.927l6.004,5.927l5.955,-5.927l6.187,5.927l6.046,-5.927l5.958,5.927l6.048,-5.927l6.095,5.927l5.956,-5.927l6.049,5.927" style="fill:none;stroke:#4d07eb;stroke-width:2px;"/><path d="M219.234,109.114l6.737,6.442l5.958,-6.037l6.003,5.928l6.183,-5.928l6.004,5.928l5.956,-5.928l6.187,5.928l6.045,-5.928l5.958,5.928l6.049,-5.928l6.094,5.928l5.956,-5.928l6.05,5.928" style="fill:none;stroke:#4d07eb;stroke-width:2px;"/><path d="M146.695,121.24l6.737,6.443l5.957,-6.037l6.003,5.927l6.184,-5.927l6.004,5.927l5.955,-5.927l6.187,5.927l6.046,-5.927l5.958,5.927l6.048,-5.927l6.095,5.927l5.956,-5.927l6.049,5.927" style="fill:none;stroke:#4d07eb;stroke-width:2px;"/><path d="M219.234,121.131l6.737,6.442l5.958,-6.036l6.003,5.927l6.183,-5.927l6.004,5.927l5.956,-5.927l6.187,5.927l6.045,-5.927l5.958,5.927l6.049,-5.927l6.094,5.927l5.956,-5.927l6.05,5.927" style="fill:none;stroke:#4d07eb;stroke-width:2px;"/><path d="M146.695,133.212l6.737,6.442l5.957,-6.036l6.003,5.927l6.184,-5.927l6.004,5.927l5.955,-5.927l6.187,5.927l6.046,-5.927l5.958,5.927l6.048,-5.927l6.095,5.927l5.956,-5.927l6.049,5.927" style="fill:none;stroke:#4d07eb;stroke-width:2px;"/><path d="M219.234,133.102l6.737,6.443l5.958,-6.037l6.003,5.927l6.183,-5.927l6.004,5.927l5.956,-5.927l6.187,5.927l6.045,-5.927l5.958,5.927l6.049,-5.927l6.094,5.927l5.956,-5.927l6.05,5.927" style="fill:none;stroke:#4d07eb;stroke-width:2px;"/><path d="M291.944,1.912l6.737,6.443l5.957,-6.037l6.003,5.927l6.184,-5.927l6.004,5.927l5.955,-5.927l6.187,5.927l6.046,-5.927l5.958,5.927l6.048,-5.927l6.095,5.927l5.956,-5.927l6.049,5.927" style="fill:none;stroke:#4d07eb;stroke-width:2px;"/><path d="M364.483,1.803l6.737,6.442l5.958,-6.036l6.003,5.927l6.183,-5.927l6.004,5.927l5.956,-5.927l6.187,5.927l6.045,-5.927l5.958,5.927l6.049,-5.927l6.094,5.927l5.956,-5.927l6.05,5.927" style="fill:none;stroke:#4d07eb;stroke-width:2px;"/><path d="M291.944,13.884l6.737,6.442l5.957,-6.036l6.003,5.927l6.184,-5.927l6.004,5.927l5.955,-5.927l6.187,5.927l6.046,-5.927l5.958,5.927l6.048,-5.927l6.095,5.927l5.956,-5.927l6.049,5.927" style="fill:none;stroke:#4d07eb;stroke-width:2px;"/><path d="M364.483,13.774l6.737,6.443l5.958,-6.037l6.003,5.927l6.183,-5.927l6.004,5.927l5.956,-5.927l6.187,5.927l6.045,-5.927l5.958,5.927l6.049,-5.927l6.094,5.927l5.956,-5.927l6.05,5.927" style="fill:none;stroke:#4d07eb;stroke-width:2px;"/><path d="M291.944,25.901l6.737,6.443l5.957,-6.037l6.003,5.927l6.184,-5.927l6.004,5.927l5.955,-5.927l6.187,5.927l6.046,-5.927l5.958,5.927l6.048,-5.927l6.095,5.927l5.956,-5.927l6.049,5.927" style="fill:none;stroke:#4d07eb;stroke-width:2px;"/><path d="M364.483,25.791l6.737,6.443l5.958,-6.037l6.003,5.928l6.183,-5.928l6.004,5.928l5.956,-5.928l6.187,5.928l6.045,-5.928l5.958,5.928l6.049,-5.928l6.094,5.928l5.956,-5.928l6.05,5.928" style="fill:none;stroke:#4d07eb;stroke-width:2px;"/><path d="M291.944,37.872l6.737,6.443l5.957,-6.037l6.003,5.928l6.184,-5.928l6.004,5.928l5.955,-5.928l6.187,5.928l6.046,-5.928l5.958,5.928l6.048,-5.928l6.095,5.928l5.956,-5.928l6.049,5.928" style="fill:none;stroke:#4d07eb;stroke-width:2px;"/><path d="M364.483,37.763l6.737,6.443l5.958,-6.037l6.003,5.927l6.183,-5.927l6.004,5.927l5.956,-5.927l6.187,5.927l6.045,-5.927l5.958,5.927l6.049,-5.927l6.094,5.927l5.956,-5.927l6.05,5.927" style="fill:none;stroke:#4d07eb;stroke-width:2px;"/><path d="M291.944,49.929l6.737,6.443l5.957,-6.037l6.003,5.928l6.184,-5.928l6.004,5.928l5.955,-5.928l6.187,5.928l6.046,-5.928l5.958,5.928l6.048,-5.928l6.095,5.928l5.956,-5.928l6.049,5.928" style="fill:none;stroke:#4d07eb;stroke-width:2px;"/><path d="M364.483,49.82l6.737,6.443l5.958,-6.037l6.003,5.927l6.183,-5.927l6.004,5.927l5.956,-5.927l6.187,5.927l6.045,-5.927l5.958,5.927l6.049,-5.927l6.094,5.927l5.956,-5.927l6.05,5.927" style="fill:none;stroke:#4d07eb;stroke-width:2px;"/><path d="M291.944,61.901l6.737,6.443l5.957,-6.037l6.003,5.927l6.184,-5.927l6.004,5.927l5.955,-5.927l6.187,5.927l6.046,-5.927l5.958,5.927l6.048,-5.927l6.095,5.927l5.956,-5.927l6.049,5.927" style="fill:none;stroke:#4d07eb;stroke-width:2px;"/><path d="M364.483,61.791l6.737,6.443l5.958,-6.037l6.003,5.928l6.183,-5.928l6.004,5.928l5.956,-5.928l6.187,5.928l6.045,-5.928l5.958,5.928l6.049,-5.928l6.094,5.928l5.956,-5.928l6.05,5.928" style="fill:none;stroke:#4d07eb;stroke-width:2px;"/><path d="M291.944,72.986l6.737,6.443l5.957,-6.037l6.003,5.927l6.184,-5.927l6.004,5.927l5.955,-5.927l6.187,5.927l6.046,-5.927l5.958,5.927l6.048,-5.927l6.095,5.927l5.956,-5.927l6.049,5.927" style="fill:none;stroke:#4d07eb;stroke-width:2px;"/><path d="M364.483,72.877l6.737,6.442l5.958,-6.036l6.003,5.927l6.183,-5.927l6.004,5.927l5.956,-5.927l6.187,5.927l6.045,-5.927l5.958,5.927l6.049,-5.927l6.094,5.927l5.956,-5.927l6.05,5.927" style="fill:none;stroke:#4d07eb;stroke-width:2px;"/><path d="M291.944,84.958l6.737,6.442l5.957,-6.036l6.003,5.927l6.184,-5.927l6.004,5.927l5.955,-5.927l6.187,5.927l6.046,-5.927l5.958,5.927l6.048,-5.927l6.095,5.927l5.956,-5.927l6.049,5.927" style="fill:none;stroke:#4d07eb;stroke-width:2px;"/><path d="M364.483,84.848l6.737,6.443l5.958,-6.037l6.003,5.927l6.183,-5.927l6.004,5.927l5.956,-5.927l6.187,5.927l6.045,-5.927l5.958,5.927l6.049,-5.927l6.094,5.927l5.956,-5.927l6.05,5.927" style="fill:none;stroke:#4d07eb;stroke-width:2px;"/><path d="M291.944,97.147l6.737,6.442l5.957,-6.036l6.003,5.927l6.184,-5.927l6.004,5.927l5.955,-5.927l6.187,5.927l6.046,-5.927l5.958,5.927l6.048,-5.927l6.095,5.927l5.956,-5.927l6.049,5.927" style="fill:none;stroke:#4d07eb;stroke-width:2px;"/><path d="M364.483,97.037l6.737,6.443l5.958,-6.037l6.003,5.927l6.183,-5.927l6.004,5.927l5.956,-5.927l6.187,5.927l6.045,-5.927l5.958,5.927l6.049,-5.927l6.094,5.927l5.956,-5.927l6.05,5.927" style="fill:none;stroke:#4d07eb;stroke-width:2px;"/><path d="M291.944,109.118l6.737,6.443l5.957,-6.037l6.003,5.927l6.184,-5.927l6.004,5.927l5.955,-5.927l6.187,5.927l6.046,-5.927l5.958,5.927l6.048,-5.927l6.095,5.927l5.956,-5.927l6.049,5.927" style="fill:none;stroke:#4d07eb;stroke-width:2px;"/><path d="M364.483,109.009l6.737,6.442l5.958,-6.036l6.003,5.927l6.183,-5.927l6.004,5.927l5.956,-5.927l6.187,5.927l6.045,-5.927l5.958,5.927l6.049,-5.927l6.094,5.927l5.956,-5.927l6.05,5.927" style="fill:none;stroke:#4d07eb;stroke-width:2px;"/><path d="M291.944,121.135l6.737,6.443l5.957,-6.037l6.003,5.927l6.184,-5.927l6.004,5.927l5.955,-5.927l6.187,5.927l6.046,-5.927l5.958,5.927l6.048,-5.927l6.095,5.927l5.956,-5.927l6.049,5.927" style="fill:none;stroke:#4d07eb;stroke-width:2px;"/><path d="M364.483,121.026l6.737,6.442l5.958,-6.036l6.003,5.927l6.183,-5.927l6.004,5.927l5.956,-5.927l6.187,5.927l6.045,-5.927l5.958,5.927l6.049,-5.927l6.094,5.927l5.956,-5.927l6.05,5.927" style="fill:none;stroke:#4d07eb;stroke-width:2px;"/><path d="M291.944,133.107l6.737,6.442l5.957,-6.036l6.003,5.927l6.184,-5.927l6.004,5.927l5.955,-5.927l6.187,5.927l6.046,-5.927l5.958,5.927l6.048,-5.927l6.095,5.927l5.956,-5.927l6.049,5.927" style="fill:none;stroke:#4d07eb;stroke-width:2px;"/><path d="M364.483,132.997l6.737,6.443l5.958,-6.037l6.003,5.928l6.183,-5.928l6.004,5.928l5.956,-5.928l6.187,5.928l6.045,-5.928l5.958,5.928l6.049,-5.928l6.094,5.928l5.956,-5.928l6.05,5.928" style="fill:none;stroke:#4d07eb;stroke-width:2px;"/><path d="M436.836,2.017l6.737,6.443l5.957,-6.037l6.003,5.927l6.183,-5.927l6.004,5.927l5.956,-5.927l6.187,5.927l6.046,-5.927l5.958,5.927l6.048,-5.927l6.094,5.927l5.956,-5.927l6.05,5.927" style="fill:none;stroke:#4d07eb;stroke-width:2px;"/><path d="M509.375,1.908l6.737,6.442l5.958,-6.036l6.003,5.927l6.183,-5.927l6.004,5.927l5.955,-5.927l6.188,5.927l6.045,-5.927l5.958,5.927l6.048,-5.927l6.095,5.927l5.956,-5.927l6.05,5.927" style="fill:none;stroke:#4d07eb;stroke-width:2px;"/><path d="M436.836,13.989l6.737,6.442l5.957,-6.036l6.003,5.927l6.183,-5.927l6.004,5.927l5.956,-5.927l6.187,5.927l6.046,-5.927l5.958,5.927l6.048,-5.927l6.094,5.927l5.956,-5.927l6.05,5.927" style="fill:none;stroke:#4d07eb;stroke-width:2px;"/><path d="M509.375,13.879l6.737,6.443l5.958,-6.037l6.003,5.927l6.183,-5.927l6.004,5.927l5.955,-5.927l6.188,5.927l6.045,-5.927l5.958,5.927l6.048,-5.927l6.095,5.927l5.956,-5.927l6.05,5.927" style="fill:none;stroke:#4d07eb;stroke-width:2px;"/><path d="M436.836,26.006l6.737,6.442l5.957,-6.036l6.003,5.927l6.183,-5.927l6.004,5.927l5.956,-5.927l6.187,5.927l6.046,-5.927l5.958,5.927l6.048,-5.927l6.094,5.927l5.956,-5.927l6.05,5.927" style="fill:none;stroke:#4d07eb;stroke-width:2px;"/><path d="M509.375,25.896l6.737,6.443l5.958,-6.037l6.003,5.928l6.183,-5.928l6.004,5.928l5.955,-5.928l6.188,5.928l6.045,-5.928l5.958,5.928l6.048,-5.928l6.095,5.928l5.956,-5.928l6.05,5.928" style="fill:none;stroke:#4d07eb;stroke-width:2px;"/><path d="M436.836,37.977l6.737,6.443l5.957,-6.037l6.003,5.927l6.183,-5.927l6.004,5.927l5.956,-5.927l6.187,5.927l6.046,-5.927l5.958,5.927l6.048,-5.927l6.094,5.927l5.956,-5.927l6.05,5.927" style="fill:none;stroke:#4d07eb;stroke-width:2px;"/><path d="M509.375,37.868l6.737,6.442l5.958,-6.036l6.003,5.927l6.183,-5.927l6.004,5.927l5.955,-5.927l6.188,5.927l6.045,-5.927l5.958,5.927l6.048,-5.927l6.095,5.927l5.956,-5.927l6.05,5.927" style="fill:none;stroke:#4d07eb;stroke-width:2px;"/><path d="M436.836,50.034l6.737,6.443l5.957,-6.037l6.003,5.928l6.183,-5.928l6.004,5.928l5.956,-5.928l6.187,5.928l6.046,-5.928l5.958,5.928l6.048,-5.928l6.094,5.928l5.956,-5.928l6.05,5.928" style="fill:none;stroke:#4d07eb;stroke-width:2px;"/><path d="M509.375,49.925l6.737,6.443l5.958,-6.037l6.003,5.927l6.183,-5.927l6.004,5.927l5.955,-5.927l6.188,5.927l6.045,-5.927l5.958,5.927l6.048,-5.927l6.095,5.927l5.956,-5.927l6.05,5.927" style="fill:none;stroke:#4d07eb;stroke-width:2px;"/><path d="M436.836,62.006l6.737,6.443l5.957,-6.037l6.003,5.927l6.183,-5.927l6.004,5.927l5.956,-5.927l6.187,5.927l6.046,-5.927l5.958,5.927l6.048,-5.927l6.094,5.927l5.956,-5.927l6.05,5.927" style="fill:none;stroke:#4d07eb;stroke-width:2px;"/><path d="M509.375,61.896l6.737,6.443l5.958,-6.037l6.003,5.928l6.183,-5.928l6.004,5.928l5.955,-5.928l6.188,5.928l6.045,-5.928l5.958,5.928l6.048,-5.928l6.095,5.928l5.956,-5.928l6.05,5.928" style="fill:none;stroke:#4d07eb;stroke-width:2px;"/><path d="M436.836,73.091l6.737,6.443l5.957,-6.037l6.003,5.927l6.183,-5.927l6.004,5.927l5.956,-5.927l6.187,5.927l6.046,-5.927l5.958,5.927l6.048,-5.927l6.094,5.927l5.956,-5.927l6.05,5.927" style="fill:none;stroke:#4d07eb;stroke-width:2px;"/><path d="M509.375,72.982l6.737,6.442l5.958,-6.036l6.003,5.927l6.183,-5.927l6.004,5.927l5.955,-5.927l6.188,5.927l6.045,-5.927l5.958,5.927l6.048,-5.927l6.095,5.927l5.956,-5.927l6.05,5.927" style="fill:none;stroke:#4d07eb;stroke-width:2px;"/><path d="M436.836,85.063l6.737,6.442l5.957,-6.036l6.003,5.927l6.183,-5.927l6.004,5.927l5.956,-5.927l6.187,5.927l6.046,-5.927l5.958,5.927l6.048,-5.927l6.094,5.927l5.956,-5.927l6.05,5.927" style="fill:none;stroke:#4d07eb;stroke-width:2px;"/><path d="M509.375,84.953l6.737,6.443l5.958,-6.037l6.003,5.927l6.183,-5.927l6.004,5.927l5.955,-5.927l6.188,5.927l6.045,-5.927l5.958,5.927l6.048,-5.927l6.095,5.927l5.956,-5.927l6.05,5.927" style="fill:none;stroke:#4d07eb;stroke-width:2px;"/><path d="M436.836,97.252l6.737,6.442l5.957,-6.037l6.003,5.928l6.183,-5.928l6.004,5.928l5.956,-5.928l6.187,5.928l6.046,-5.928l5.958,5.928l6.048,-5.928l6.094,5.928l5.956,-5.928l6.05,5.928" style="fill:none;stroke:#4d07eb;stroke-width:2px;"/><path d="M509.375,97.142l6.737,6.443l5.958,-6.037l6.003,5.927l6.183,-5.927l6.004,5.927l5.955,-5.927l6.188,5.927l6.045,-5.927l5.958,5.927l6.048,-5.927l6.095,5.927l5.956,-5.927l6.05,5.927" style="fill:none;stroke:#4d07eb;stroke-width:2px;"/><path d="M436.836,109.223l6.737,6.443l5.957,-6.037l6.003,5.927l6.183,-5.927l6.004,5.927l5.956,-5.927l6.187,5.927l6.046,-5.927l5.958,5.927l6.048,-5.927l6.094,5.927l5.956,-5.927l6.05,5.927" style="fill:none;stroke:#4d07eb;stroke-width:2px;"/><path d="M509.375,109.114l6.737,6.442l5.958,-6.037l6.003,5.928l6.183,-5.928l6.004,5.928l5.955,-5.928l6.188,5.928l6.045,-5.928l5.958,5.928l6.048,-5.928l6.095,5.928l5.956,-5.928l6.05,5.928" style="fill:none;stroke:#4d07eb;stroke-width:2px;"/><path d="M436.836,121.24l6.737,6.443l5.957,-6.037l6.003,5.927l6.183,-5.927l6.004,5.927l5.956,-5.927l6.187,5.927l6.046,-5.927l5.958,5.927l6.048,-5.927l6.094,5.927l5.956,-5.927l6.05,5.927" style="fill:none;stroke:#4d07eb;stroke-width:2px;"/><path d="M509.375,121.131l6.737,6.442l5.958,-6.036l6.003,5.927l6.183,-5.927l6.004,5.927l5.955,-5.927l6.188,5.927l6.045,-5.927l5.958,5.927l6.048,-5.927l6.095,5.927l5.956,-5.927l6.05,5.927" style="fill:none;stroke:#4d07eb;stroke-width:2px;"/><path d="M436.836,133.212l6.737,6.442l5.957,-6.036l6.003,5.927l6.183,-5.927l6.004,5.927l5.956,-5.927l6.187,5.927l6.046,-5.927l5.958,5.927l6.048,-5.927l6.094,5.927l5.956,-5.927l6.05,5.927" style="fill:none;stroke:#4d07eb;stroke-width:2px;"/><path d="M509.375,133.102l6.737,6.443l5.958,-6.037l6.003,5.927l6.183,-5.927l6.004,5.927l5.955,-5.927l6.188,5.927l6.045,-5.927l5.958,5.927l6.048,-5.927l6.095,5.927l5.956,-5.927l6.05,5.927" style="fill:none;stroke:#4d07eb;stroke-width:2px;"/></svg>
