<?xml version="1.0" encoding="UTF-8" standalone="no"?>
<!DOCTYPE svg PUBLIC "-//W3C//DTD SVG 1.1//EN" "http://www.w3.org/Graphics/SVG/1.1/DTD/svg11.dtd">
<svg width="100%" height="100%" viewBox="0 0 300 300" version="1.1" xmlns="http://www.w3.org/2000/svg" xmlns:xlink="http://www.w3.org/1999/xlink" xml:space="preserve" style="fill-rule:evenodd;clip-rule:evenodd;stroke-linejoin:round;stroke-miterlimit:1.41421;">
    <g transform="matrix(1,0,0,1,-722.875,-1.60083)">
        <g transform="matrix(1,0,0,1,722.875,2.12833)">
            <path d="M150,-0.527C232.787,-0.527 300,66.685 300,149.473C300,232.26 232.787,299.473 150,299.473C67.213,299.473 0,232.26 0,149.473C0,66.685 67.213,-0.527 150,-0.527ZM236.843,122.201C236.803,121.99 236.768,121.779 236.711,121.573C236.676,121.449 236.634,121.332 236.594,121.21C236.536,121.027 236.475,120.845 236.402,120.667C236.351,120.542 236.292,120.423 236.236,120.303C236.156,120.135 236.074,119.969 235.981,119.807C235.915,119.687 235.84,119.575 235.767,119.46C235.667,119.306 235.564,119.153 235.451,119.006C235.369,118.896 235.285,118.79 235.196,118.685C235.079,118.544 234.952,118.411 234.826,118.28C234.727,118.181 234.629,118.083 234.526,117.987C234.39,117.863 234.25,117.746 234.102,117.633C233.99,117.546 233.879,117.457 233.762,117.378C233.72,117.347 233.683,117.312 233.638,117.284L154.144,64.283C151.635,62.608 148.363,62.608 145.854,64.283L66.355,117.282C66.31,117.31 66.275,117.345 66.231,117.375C66.114,117.457 66.003,117.544 65.891,117.631C65.746,117.746 65.603,117.863 65.467,117.982C65.364,118.076 65.266,118.174 65.17,118.275C65.038,118.406 64.917,118.54 64.797,118.68C64.708,118.786 64.624,118.891 64.542,119.008C64.429,119.156 64.326,119.306 64.226,119.463C64.153,119.577 64.08,119.69 64.012,119.809C63.919,119.971 63.837,120.137 63.759,120.301C63.703,120.421 63.642,120.542 63.593,120.664C63.52,120.842 63.457,121.025 63.399,121.208C63.359,121.33 63.317,121.449 63.284,121.559C63.23,121.765 63.19,121.974 63.153,122.187C63.132,122.295 63.106,122.4 63.092,122.51C63.05,122.833 63.026,123.157 63.026,123.487L63.026,176.497C63.026,176.825 63.05,177.153 63.096,177.474C63.113,177.591 63.143,177.685 63.167,177.797C63.204,178.008 63.237,178.219 63.307,178.43C63.34,178.547 63.378,178.664 63.424,178.793C63.483,178.98 63.542,179.168 63.612,179.339C63.661,179.456 63.729,179.573 63.776,179.69C63.853,179.854 63.94,180.018 64.033,180.189C64.099,180.306 64.174,180.423 64.244,180.531C64.345,180.695 64.455,180.835 64.572,180.976C64.654,181.093 64.736,181.187 64.83,181.299C64.949,181.44 65.064,181.58 65.205,181.705C65.301,181.798 65.392,181.915 65.509,181.986C65.645,182.103 65.79,182.22 65.931,182.342C66.043,182.435 66.165,182.506 66.259,182.597C66.303,182.62 66.329,182.667 66.376,182.688L145.854,235.715C147.109,236.558 148.548,236.98 150,236.973C151.452,236.966 152.891,236.551 154.146,235.715L233.645,182.716C233.69,182.688 233.727,182.656 233.769,182.625C233.886,182.543 233.997,182.456 234.109,182.37C234.254,182.255 234.397,182.136 234.533,182.014C234.636,181.922 234.734,181.822 234.833,181.723C234.962,181.592 235.086,181.459 235.203,181.318C235.292,181.213 235.376,181.107 235.458,180.995C235.571,180.847 235.674,180.695 235.774,180.54C235.847,180.428 235.92,180.313 235.988,180.198C236.081,180.034 236.163,179.868 236.243,179.699C236.299,179.58 236.358,179.46 236.409,179.339C236.482,179.158 236.543,178.976 236.601,178.793C236.641,178.671 236.683,178.552 236.718,178.43C236.772,178.224 236.81,178.013 236.85,177.802C236.868,177.694 236.897,177.589 236.908,177.479C236.95,177.155 236.974,176.832 236.974,176.502L236.974,123.501C236.974,123.171 236.948,122.847 236.908,122.524C236.889,122.409 236.854,122.316 236.831,122.201L236.843,122.201ZM110.119,158.999L142.525,180.671L142.525,215.537L83.961,176.49L110.119,158.994L110.119,158.999ZM157.473,180.667L189.878,158.994L216.039,176.49L157.473,215.532L157.473,180.667ZM149.998,167.682L123.563,150.001L149.998,132.318L176.435,150.001L149.998,167.682ZM203.325,150.001L222.022,137.495L222.022,162.51L203.325,150.001ZM96.676,149.999L77.978,162.506L77.978,137.493L96.676,149.999ZM203.325,150.001L203.322,150.004L203.322,149.999L203.325,150.001ZM142.525,119.334L110.119,141.009L83.961,123.51L142.525,84.468L142.525,119.334ZM189.878,141.009L157.473,119.336L157.473,84.468L216.039,123.51L189.878,141.009Z" style="fill:rgb(62,6,194);"/>
        </g>
    </g>
</svg>
