<?xml version="1.0" encoding="UTF-8" standalone="no"?>
<!DOCTYPE svg PUBLIC "-//W3C//DTD SVG 1.1//EN" "http://www.w3.org/Graphics/SVG/1.1/DTD/svg11.dtd">
<svg width="100%" height="100%" viewBox="0 0 300 300" version="1.1" xmlns="http://www.w3.org/2000/svg" xmlns:xlink="http://www.w3.org/1999/xlink" xml:space="preserve" style="fill-rule:evenodd;clip-rule:evenodd;stroke-linejoin:round;stroke-miterlimit:1.41421;">
    <rect id="freecodecamp" x="0" y="0" width="300" height="300" style="fill:none;"/>
    <circle id="freecodecamp1" cx="150" cy="150" r="150" style="fill:rgb(62,6,194);"/>
    <path id="path1" d="M77.892,237.229c-4.611,-1.398 -7.283,-6.006 -6.172,-10.64c0.688,-2.866 3.565,-5.813 6.364,-6.517c2.819,-0.71 148.672,-0.71 151.491,0c2.885,0.726 5.72,3.682 6.35,6.622c0.827,3.852 -0.905,7.795 -4.269,9.722l-1.778,1.019l-75.418,0.071c-41.48,0.039 -75.936,-0.086 -76.568,-0.277l0,0Zm57.451,-35.455c-14.007,-5.094 -25.66,-15.022 -31.625,-26.943c-3.317,-6.627 -5.242,-14.654 -5.24,-21.848c0.002,-9.727 3.806,-18.995 15.393,-37.51c8.631,-13.79 10.101,-16.303 12.639,-21.6c3.377,-7.048 4.49,-11.234 4.561,-17.149c0.068,-5.652 -0.779,-9.005 -3.383,-13.391c-1.848,-3.114 -6.005,-7.8 -7.693,-8.673c-2.752,-1.423 -3.322,-3.356 -1.368,-4.636c3.09,-2.025 11.533,-0.741 19.291,2.934c8.777,4.158 15.246,10.128 19.459,17.958c3.247,6.035 4.556,10.66 6.758,23.875c2.444,14.665 4.867,19.318 9.766,18.755c2.595,-0.298 4.215,-1.283 5.309,-3.228c1.741,-3.099 0.994,-7.339 -2.527,-14.357c-2.877,-5.734 -2.699,-7.466 0.675,-6.574c1.748,0.463 7.421,5.096 11.348,9.269c9.825,10.441 14.715,19.928 17.067,33.109c1.234,6.914 1.336,18.378 0.218,24.369c-1.41,7.559 -4.268,14.693 -8.33,20.794c-4.53,6.804 -13.979,15.411 -20.849,18.992c-3.102,1.617 -4.179,1.715 -5.699,0.519c-1.892,-1.488 -1.492,-2.522 2.689,-6.964c6.282,-6.673 9.489,-11.416 11.35,-16.787c2.871,-8.286 1.442,-19.838 -3.365,-27.201c-1.991,-3.05 -4.909,-5.739 -6.227,-5.739c-0.722,0 -0.602,0.952 0.736,5.854c0.469,1.717 0.852,3.816 0.852,4.664c0,4.486 -6.33,7.737 -11.907,6.116c-4.532,-1.318 -6.53,-5.428 -5.929,-12.199c0.185,-2.093 0.351,-5.895 0.368,-8.45c0.031,-4.505 -0.013,-4.733 -1.439,-7.545c-2.779,-5.482 -9.208,-11.129 -12.67,-11.129c-1.492,0 -1.615,0.091 -1.615,1.188c0,0.736 0.414,1.574 1.091,2.206c3.586,3.347 4.261,10.205 1.6,16.26c-1.644,3.742 -3.498,5.861 -9.831,11.237c-8.333,7.073 -11.018,10.441 -12.683,15.909c-0.77,2.529 -0.85,3.558 -0.633,8.193c0.364,7.781 1.95,12.938 5.656,18.396c2.846,4.191 6.178,6.849 10.703,8.54c2.177,0.813 2.416,1.023 2.416,2.118c0,1.27 -0.965,2.104 -2.388,2.065c-0.42,-0.012 -2.465,-0.64 -4.544,-1.397l0,0Z" style="fill:rgb(226,226,226);fill-rule:nonzero;"/>
</svg>
