<?xml version="1.0" encoding="UTF-8" standalone="no"?>
<!DOCTYPE svg PUBLIC "-//W3C//DTD SVG 1.1//EN" "http://www.w3.org/Graphics/SVG/1.1/DTD/svg11.dtd">
<svg width="100%" height="100%" viewBox="0 0 300 298" version="1.1" xmlns="http://www.w3.org/2000/svg" xmlns:xlink="http://www.w3.org/1999/xlink" xml:space="preserve" style="fill-rule:evenodd;clip-rule:evenodd;stroke-linejoin:round;stroke-miterlimit:1.41421;">
    <g transform="matrix(1,0,0,1,-361.437,-1.60083)">
        <g transform="matrix(1,0,0,1,361.437,2.12833)">
            <path d="M120.58,296.565C51.85,282.884 0,222.186 0,149.473C0,66.685 67.213,-0.527 150,-0.527C232.787,-0.527 300,66.685 300,149.473C300,217.516 254.595,275.039 192.453,293.33C191.101,287.414 190.109,281.815 189.629,277.784L189.629,241.4C189.629,229.025 185.287,220.959 180.536,216.849C210.059,213.568 241.073,202.353 241.073,151.428C241.073,136.954 235.936,125.121 227.428,115.839C228.798,112.503 233.339,99.012 226.124,80.748C226.124,80.748 215.009,77.19 189.696,94.338C179.1,91.399 167.752,89.93 156.482,89.874C145.212,89.93 133.876,91.399 123.302,94.338C97.967,77.19 86.83,80.748 86.83,80.748C79.626,99.001 84.167,112.492 85.537,115.839C77.062,125.121 71.88,136.943 71.88,151.428C71.88,202.22 102.84,213.59 132.285,216.96C128.484,220.263 125.048,226.119 123.866,234.682C116.297,238.074 97.105,243.93 85.283,223.666C85.283,223.666 78.278,210.927 64.964,209.999C64.964,209.999 52.014,209.822 64.047,218.054C64.047,218.054 72.742,222.131 78.775,237.456C78.775,237.456 86.454,261.123 123.335,253.101L123.335,277.784C123.335,279.197 122.29,287.387 120.58,296.565Z" style="fill:rgb(62,6,194);"/>
        </g>
    </g>
</svg>
