<?xml version="1.0" encoding="UTF-8" standalone="no"?>
<!DOCTYPE svg PUBLIC "-//W3C//DTD SVG 1.1//EN" "http://www.w3.org/Graphics/SVG/1.1/DTD/svg11.dtd">
<svg width="100%" height="100%" viewBox="0 0 300 300" version="1.1" xmlns="http://www.w3.org/2000/svg" xmlns:xlink="http://www.w3.org/1999/xlink" xml:space="preserve" style="fill-rule:evenodd;clip-rule:evenodd;stroke-linejoin:round;stroke-miterlimit:1.41421;">
    <g transform="matrix(1,0,0,1,0,0.733961)">
        <path d="M150,-0.734C232.787,-0.734 300,66.479 300,149.266C300,232.053 232.787,299.266 150,299.266C67.213,299.266 0,232.053 0,149.266C0,66.479 67.213,-0.734 150,-0.734ZM210.832,210.453C218.159,210.4 224.057,204.47 224.057,197.229L224.057,131.603C221.577,134.33 218.767,136.727 215.792,138.794C201.989,148.133 188.103,157.556 174.63,167.309C167.688,172.433 159.092,178.715 150.083,178.715L149.917,178.715C140.908,178.715 132.312,172.433 125.37,167.309C111.897,157.473 98.011,148.133 84.291,138.794C81.233,136.727 78.423,134.33 75.943,131.603L75.943,197.229C75.943,204.503 81.894,210.453 89.168,210.453L210.832,210.453ZM150.083,168.135C156.858,168.068 165.893,160.515 171.242,156.812C184.053,147.803 197.029,138.876 209.923,129.95C217.197,124.908 224.057,116.56 224.057,107.303C224.057,100.03 218.023,94.079 210.832,94.079L89.168,94.079C80.324,94.079 75.943,101.021 75.943,109.121C75.943,116.643 84.291,125.982 90.159,129.95C102.971,138.876 115.947,147.803 128.758,156.812C134.131,160.531 143.222,168.135 149.917,168.135L150.083,168.135Z" style="fill:rgb(62,6,194);"/>
    </g>
</svg>
